<svg id="Layer_1" data-name="Layer 1" xmlns="http://www.w3.org/2000/svg" viewBox="0 0 934 934"><defs><style>.cls-1{fill:#fad64b;}.cls-2{fill:#fff;}</style></defs><rect class="cls-1" width="934" height="934" rx="53.43"/><path class="cls-2" d="M479,500.83c-29.2,34.26-74.48,46.34-115.49,31.32a98.5,98.5,0,0,1-45.89-34.67A98.36,98.36,0,0,0,301.36,526a102.78,102.78,0,0,0-5.78,46.33c29.37,21.49,66.24,34,107.05,34.58,44.86-.12,87.54-16.7,120-52.5Q500.83,527.6,479,500.83Zm282.82-354C726.26,61.21,621.73,37.49,547.6,97.3c-84.34,68-168.44,136.37-253,204.09-59.26,47.45-82.38,120.16-59,189.06q1.52,4.49,3.27,8.83a170.45,170.45,0,0,1,59.24-78c3.44-23.79,15.51-46.61,37.12-64.23Q463.75,252.28,593,148.47c29.83-24,66.54-22.18,92.07,3.57,25.21,25.42,26.53,62.19,2.37,92.15C635.53,308.62,583.17,372.72,531,437q-3.91,4.82-7.82,9.66,4.61,5,9,10.43,17.5,21.87,35.07,43.69Q657,391.6,744.68,280.7C776.37,240.61,781.46,194.07,761.84,146.85Z" transform="translate(-33 -33)"/><path d="M736.22,710.08q-84.47-104.7-169-209.34-19.82,24.09-39.75,48.09c-1.59,1.91-3.21,3.77-4.84,5.59q81.48,100.33,162.45,201.1c24,29.83,22.17,66.54-3.58,92.07-25.42,25.21-62.18,26.53-92.15,2.37Q492.67,772,396.56,693.47c-21.11-17.15-42.5-34-63.31-51.48-21.9-18.43-34.88-43.38-37.67-69.65a167.46,167.46,0,0,1-56.71-73.06,192.36,192.36,0,0,0-12.27,65.83c.12,47.13,18.42,91.86,58.09,124.81Q417.43,800.14,552.81,907.16c40.09,31.69,86.64,36.78,133.85,17.16C772.3,888.74,796,784.21,736.22,710.08Z" transform="translate(-33 -33)"/><path d="M523.17,446.62c-14.47,17.95-28.82,36-43.66,53.64l-.49.57-2.54-3.12c-20.4-25-47.79-37.26-75.58-38.12-34.33.07-64.13,14.55-83.26,37.89-12.95-17.74-20.48-40.13-20.53-64.87a100.32,100.32,0,0,1,1-11.34,169,169,0,0,1,44.95-23.19C407.76,376.1,475.82,395.14,523.17,446.62Z" transform="translate(-33 -33)"/><path class="cls-2" d="M567.19,500.74q-19.82,24.09-39.75,48.09c-1.59,1.91-3.21,3.77-4.84,5.59Q500.83,527.6,479,500.83l.49-.57c14.84-17.64,29.19-35.69,43.66-53.64q4.61,5,9,10.43Q549.63,478.92,567.19,500.74Z" transform="translate(-33 -33)"/><path d="M301.36,526a102.78,102.78,0,0,0-5.78,46.33,167.46,167.46,0,0,1-56.71-73.06,170.45,170.45,0,0,1,59.24-78,100.32,100.32,0,0,0-1,11.34c.05,24.74,7.58,47.13,20.53,64.87A98.36,98.36,0,0,0,301.36,526Z" transform="translate(-33 -33)"/></svg>