<svg width="24" height="24" viewBox="0 0 24 24" fill="none" xmlns="http://www.w3.org/2000/svg">
<mask id="mask0_1229_475" style="mask-type:luminance" maskUnits="userSpaceOnUse" x="0" y="0" width="24" height="24">
<path d="M24 0H0V24H24V0Z" fill="white"/>
</mask>
<g mask="url(#mask0_1229_475)">
<path fill-rule="evenodd" clip-rule="evenodd" d="M7.49971 1.87277C8.8912 1.30951 10.4111 1 12 1C18.6274 1 24 6.37259 24 13C24 13.7364 23.403 14.3333 22.6667 14.3333C21.9303 14.3333 21.3333 13.7364 21.3333 13C21.3333 7.84534 17.1547 3.66667 12 3.66667C10.7598 3.66667 9.57928 3.90784 8.50029 4.34461C7.81771 4.62091 7.04038 4.29155 6.76408 3.60898C6.48778 2.9264 6.81714 2.14907 7.49971 1.87277ZM4.88231 4.94482C5.4344 5.4321 5.48694 6.27469 4.99965 6.82678C3.54676 8.4729 2.66667 10.632 2.66667 13C2.66667 13.7364 2.06971 14.3333 1.33333 14.3333C0.596954 14.3333 0 13.7364 0 13C0 9.95757 1.13397 7.17675 3.00035 5.06216C3.48763 4.51006 4.33022 4.45753 4.88231 4.94482Z" fill="white"/>
<path fill-rule="evenodd" clip-rule="evenodd" d="M5.33333 13C5.33333 9.3181 8.3181 6.33333 12 6.33333C15.6819 6.33333 18.6667 9.3181 18.6667 13C18.6667 13.7364 18.0697 14.3333 17.3333 14.3333C16.597 14.3333 16 13.7364 16 13C16 10.7909 14.2091 9 12 9C9.79086 9 8 10.7909 8 13C8 15.2362 7.54047 17.3685 6.70942 19.305C6.41901 19.9817 5.63502 20.2949 4.95832 20.0045C4.28163 19.7141 3.96848 18.9301 4.25888 18.2534C4.94997 16.643 5.33333 14.868 5.33333 13ZM17.2282 15.6831C17.9555 15.7985 18.4516 16.4816 18.3362 17.2089C18.1607 18.3156 17.917 19.3998 17.6097 20.457C17.4041 21.1641 16.6642 21.5707 15.9571 21.3651C15.25 21.1596 14.8434 20.4197 15.049 19.7126C15.3254 18.762 15.5445 17.7868 15.7025 16.7911C15.8178 16.0638 16.5009 15.5678 17.2282 15.6831Z" fill="white"/>
<path fill-rule="evenodd" clip-rule="evenodd" d="M12 11.6667C12.7364 11.6667 13.3333 12.2636 13.3333 13C13.3333 15.9817 12.7208 18.8239 11.6135 21.4047C11.3232 22.0815 10.5392 22.3947 9.86249 22.1043C9.18577 21.814 8.87255 21.03 9.16289 20.3533C10.1303 18.0985 10.6667 15.6136 10.6667 13C10.6667 12.2636 11.2636 11.6667 12 11.6667Z" fill="white"/>
</g>
</svg>
