<svg width="20" height="17" viewBox="0 0 20 17" fill="none" xmlns="http://www.w3.org/2000/svg">
<path d="M0 4C0 2.11438 0 1.17157 0.585786 0.585786C1.17157 0 2.11438 0 4 0H16C17.8856 0 18.8284 0 19.4142 0.585786C20 1.17157 20 2.11438 20 4C20 4.4714 20 4.70711 19.8536 4.85355C19.7071 5 19.4714 5 19 5H1C0.528596 5 0.292893 5 0.146447 4.85355C0 4.70711 0 4.4714 0 4Z" fill="#FAD64B"/>
<path d="M0 13C0 14.8856 0 15.8284 0.585786 16.4142C1.17157 17 2.11438 17 4 17H16C17.8856 17 18.8284 17 19.4142 16.4142C20 15.8284 20 14.8856 20 13V8C20 7.5286 20 7.29289 19.8536 7.14645C19.7071 7 19.4714 7 19 7H1C0.528596 7 0.292893 7 0.146447 7.14645C0 7.29289 0 7.5286 0 8V13Z" fill="#FAD64B"/>
</svg>
