<svg width="28" height="29" viewBox="0 0 28 29" fill="none" xmlns="http://www.w3.org/2000/svg">
<path fill-rule="evenodd" clip-rule="evenodd" d="M17.3561 18.0195C15.6627 17.3867 13.8009 17.0526 11.9031 17.0526C9.11191 17.0526 6.39872 17.7752 4.18432 19.1082C2.34119 20.2177 0.929357 21.6986 0.0911783 23.3836C-0.176275 23.9213 0.173819 24.5343 0.761498 24.6579L3.44385 25.2217C8.02695 26.1852 12.7358 26.3347 17.3561 25.6714V24.3157H14.7208C13.0639 24.3157 11.7208 22.9726 11.7208 21.3157C11.7208 19.6589 13.0639 18.3157 14.7208 18.3157L17.3561 18.3157V18.0195Z" fill="white"/>
<path d="M20.356 15.6316L20.356 27" stroke="white" stroke-width="2.5" stroke-linecap="round"/>
<path d="M25.9912 21.3158L14.7206 21.3158" stroke="white" stroke-width="2.5" stroke-linecap="round"/>
<ellipse cx="11.365" cy="7.10526" rx="7.105" ry="7.10526" fill="white"/>
</svg>
