<svg width="12" height="12" viewBox="0 0 12 12" fill="none" xmlns="http://www.w3.org/2000/svg">
<mask id="mask0_1229_13125" style="mask-type:luminance" maskUnits="userSpaceOnUse" x="0" y="0" width="12" height="12">
<path d="M12 0H0V12H12V0Z" fill="white"/>
</mask>
<g mask="url(#mask0_1229_13125)">
<path d="M6.50049 9.99998C7.16328 9.99922 7.79871 9.7356 8.26739 9.26692C8.73606 8.79825 8.99969 8.16278 9.00051 7.5V3.12151C9.00126 2.85869 8.94989 2.59833 8.84924 2.35552C8.74866 2.1127 8.60091 1.89228 8.41446 1.70701L7.29348 0.586009C7.10822 0.399595 6.88779 0.25181 6.64497 0.151219C6.40217 0.0506275 6.14181 -0.000768975 5.87898 8.69477e-06H3.50049C2.83769 0.00080262 2.20227 0.26445 1.7336 0.733119C1.26492 1.20178 1.00128 1.83721 1.00049 2.50001V7.5C1.00128 8.16278 1.26492 8.79825 1.7336 9.26692C2.20227 9.7356 2.83769 9.99922 3.50049 9.99998H6.50049ZM2.00049 7.5V2.50001C2.00049 2.10218 2.15852 1.72065 2.43983 1.43935C2.72113 1.15804 3.10266 1.00001 3.50049 1.00001C3.50049 1.00001 5.95998 1.00701 6.00048 1.012V2.00001C6.00048 2.26523 6.10584 2.51958 6.29338 2.70712C6.48092 2.89465 6.73527 3.00001 7.00049 3.00001H7.98846C7.99349 3.04051 8.00046 7.5 8.00046 7.5C8.00046 7.8978 7.84244 8.2794 7.56111 8.56065C7.27984 8.84198 6.89831 9 6.50049 9H3.50049C3.10266 9 2.72113 8.84198 2.43983 8.56065C2.15852 8.2794 2.00049 7.8978 2.00049 7.5ZM11.0005 4.00001V9.50002C10.9997 10.1628 10.736 10.7982 10.2674 11.2669C9.79874 11.7355 9.16326 11.9993 8.50049 12H4.00049C3.86788 12 3.7407 11.9473 3.64693 11.8536C3.55317 11.7598 3.50049 11.6326 3.50049 11.5C3.50049 11.3674 3.55317 11.2403 3.64693 11.1464C3.7407 11.0527 3.86788 11 4.00049 11H8.50049C8.89829 11 9.27981 10.842 9.56114 10.5607C9.84246 10.2794 10.0005 9.89783 10.0005 9.50002V4.00001C10.0005 3.8674 10.0531 3.74022 10.147 3.64645C10.2407 3.55269 10.3679 3.50001 10.5005 3.50001C10.6331 3.50001 10.7602 3.55269 10.8541 3.64645C10.9478 3.74022 11.0005 3.8674 11.0005 4.00001Z" fill="#FAD64B"/>
</g>
</svg>
