<svg width="20" height="24" viewBox="0 0 20 24" fill="none" xmlns="http://www.w3.org/2000/svg">
<path d="M11.0005 20C12.3261 19.9984 13.5969 19.4712 14.5343 18.5338C15.4716 17.5965 15.9989 16.3256 16.0005 15V6.24302C16.002 5.71737 15.8993 5.19666 15.698 4.71104C15.4968 4.22541 15.2013 3.78456 14.8284 3.41402L12.5865 1.17202C12.2159 0.799191 11.7751 0.503621 11.2895 0.302438C10.8038 0.101255 10.2831 -0.00153795 9.75748 1.73895e-05H5.00048C3.67489 0.00160524 2.40404 0.5289 1.46671 1.46624C0.529358 2.40357 0.00206328 3.67441 0.000488281 5.00001V15C0.00206328 16.3256 0.529358 17.5965 1.46671 18.5338C2.40404 19.4712 3.67489 19.9984 5.00048 20H11.0005ZM2.00048 15V5.00001C2.00048 4.20436 2.31655 3.4413 2.87917 2.8787C3.44177 2.31609 4.20484 2.00001 5.00048 2.00001C5.00048 2.00001 9.91948 2.01402 10.0005 2.02401V4.00002C10.0005 4.53045 10.2112 5.03916 10.5863 5.41424C10.9613 5.78931 11.47 6.00002 12.0005 6.00002H13.9764C13.9865 6.08102 14.0004 15 14.0004 15C14.0004 15.7956 13.6844 16.5588 13.1217 17.1213C12.5592 17.684 11.7961 18 11.0005 18H5.00048C4.20484 18 3.44177 17.684 2.87917 17.1213C2.31655 16.5588 2.00048 15.7956 2.00048 15ZM20.0004 8.00001V19C19.9989 20.3256 19.4715 21.5964 18.5343 22.5338C17.597 23.4711 16.326 23.9985 15.0005 24H6.00049C5.73527 24 5.48092 23.8947 5.29337 23.7072C5.10584 23.5196 5.00048 23.2653 5.00048 23C5.00048 22.7347 5.10584 22.4805 5.29337 22.2929C5.48092 22.1054 5.73527 22 6.00049 22H15.0005C15.7961 22 16.5591 21.684 17.1218 21.1213C17.6844 20.5587 18.0005 19.7957 18.0005 19V8.00001C18.0005 7.7348 18.1058 7.48044 18.2934 7.29291C18.4809 7.10538 18.7353 7.00002 19.0005 7.00002C19.2657 7.00002 19.52 7.10538 19.7076 7.29291C19.8951 7.48044 20.0004 7.7348 20.0004 8.00001Z" fill="white"/>
</svg>
