<svg width="75" height="75" viewBox="0 0 75 75" fill="none" xmlns="http://www.w3.org/2000/svg">
<path d="M37.5 0C47.4456 0 56.9839 3.95088 64.0165 10.9835C71.0491 18.0161 75 27.5544 75 37.5C75 47.4456 71.0491 56.9839 64.0165 64.0165C56.9839 71.0491 47.4456 75 37.5 75C27.5544 75 18.0161 71.0491 10.9835 64.0165C3.95088 56.9839 0 47.4456 0 37.5C0 27.5544 3.95088 18.0161 10.9835 10.9835C18.0161 3.95088 27.5544 0 37.5 0ZM32.8286 44.8982L24.4982 36.5625C24.1996 36.2639 23.845 36.027 23.4548 35.8653C23.0647 35.7037 22.6464 35.6205 22.2241 35.6205C21.8018 35.6205 21.3836 35.7037 20.9934 35.8653C20.6032 36.027 20.2486 36.2639 19.95 36.5625C19.3469 37.1656 19.008 37.9837 19.008 38.8366C19.008 39.6896 19.3469 40.5076 19.95 41.1107L30.5571 51.7179C30.8549 52.018 31.2092 52.2562 31.5995 52.4188C31.9898 52.5813 32.4084 52.665 32.8312 52.665C33.2541 52.665 33.6727 52.5813 34.063 52.4188C34.4533 52.2562 34.8076 52.018 35.1054 51.7179L57.0696 29.7482C57.3723 29.4508 57.613 29.0964 57.778 28.7055C57.943 28.3146 58.029 27.8949 58.0309 27.4706C58.0329 27.0463 57.9509 26.6258 57.7895 26.2334C57.6282 25.841 57.3907 25.4844 57.0909 25.1842C56.791 24.884 56.4347 24.6461 56.0425 24.4843C55.6502 24.3225 55.2298 24.2399 54.8055 24.2414C54.3812 24.2429 53.9614 24.3283 53.5703 24.4929C53.1792 24.6574 52.8245 24.8977 52.5268 25.2L32.8286 44.8982Z" fill="#767676"/>
</svg>
