<svg width="73" height="73" viewBox="0 0 73 73" fill="none" xmlns="http://www.w3.org/2000/svg">
<g filter="url(#filter0_d_715_345)">
<circle cx="36.5" cy="36.5" r="27.5" fill="#FAD64B"/>
</g>
<path d="M36.7712 39.2217C35.8714 39.2217 35.3464 40.0777 35.3464 41.224C35.3464 42.3775 35.8875 43.1927 36.78 43.1927C37.6798 43.1927 38.196 42.3352 38.196 41.189C38.196 40.1302 37.6885 39.2217 36.7712 39.2217Z" fill="black"/>
<path d="M39.4167 20.9166H27.75C26.9765 20.9166 26.2346 21.2239 25.6876 21.7709C25.1407 22.3179 24.8334 23.0597 24.8334 23.8333V47.1666C24.8334 47.9402 25.1407 48.682 25.6876 49.229C26.2346 49.776 26.9765 50.0833 27.75 50.0833H45.25C46.0236 50.0833 46.7655 49.776 47.3124 49.229C47.8594 48.682 48.1667 47.9402 48.1667 47.1666V29.6666L39.4167 20.9166ZM32.3511 43.4537C31.7298 43.97 30.7863 44.2135 29.6327 44.2135C28.94 44.2135 28.4515 44.1698 28.119 44.126V38.335C28.7154 38.2491 29.3175 38.2086 29.92 38.2139C31.04 38.2139 31.7663 38.4152 32.3336 38.8439C32.9461 39.2989 33.3311 40.0252 33.3311 41.0635C33.3311 42.1937 32.9198 42.9725 32.3511 43.4537ZM36.7115 44.25C34.9615 44.25 33.9392 42.9287 33.9392 41.2487C33.9392 39.4827 35.0665 38.1629 36.8077 38.1629C38.6175 38.1629 39.6063 39.5177 39.6063 41.1452C39.6048 43.0775 38.4323 44.25 36.7115 44.25ZM43.5 43.1387C43.9011 43.1387 44.3473 43.0498 44.6113 42.9462L44.8125 43.986C44.5675 44.1085 44.0163 44.2397 43.3002 44.2397C41.263 44.2397 40.213 42.9725 40.213 41.2925C40.213 39.2814 41.6465 38.1629 43.4315 38.1629C44.1227 38.1629 44.6463 38.3029 44.8825 38.4254L44.6113 39.4841C44.2562 39.3374 43.8755 39.263 43.4913 39.2654C42.4325 39.2654 41.61 39.9041 41.61 41.2166C41.61 42.3964 42.31 43.1387 43.5 43.1387ZM39.4167 31.125H37.9584V23.8333L45.25 31.125H39.4167Z" fill="black"/>
<path d="M30.0601 39.2377C29.764 39.2377 29.5715 39.2639 29.4578 39.2902V43.1475C29.5715 43.1737 29.7553 43.1737 29.9201 43.1737C31.1276 43.1825 31.9136 42.5189 31.9136 41.1102C31.9223 39.8852 31.2063 39.2377 30.0601 39.2377Z" fill="black"/>
<defs>
<filter id="filter0_d_715_345" x="0" y="0" width="73" height="73" filterUnits="userSpaceOnUse" color-interpolation-filters="sRGB">
<feFlood flood-opacity="0" result="BackgroundImageFix"/>
<feColorMatrix in="SourceAlpha" type="matrix" values="0 0 0 0 0 0 0 0 0 0 0 0 0 0 0 0 0 0 127 0" result="hardAlpha"/>
<feOffset/>
<feGaussianBlur stdDeviation="4.5"/>
<feComposite in2="hardAlpha" operator="out"/>
<feColorMatrix type="matrix" values="0 0 0 0 0.980392 0 0 0 0 0.839216 0 0 0 0 0.294118 0 0 0 0.5 0"/>
<feBlend mode="normal" in2="BackgroundImageFix" result="effect1_dropShadow_715_345"/>
<feBlend mode="normal" in="SourceGraphic" in2="effect1_dropShadow_715_345" result="shape"/>
</filter>
</defs>
</svg>
