<svg width="24" height="24" viewBox="0 0 24 24" fill="none" xmlns="http://www.w3.org/2000/svg">
<path d="M11.476 9C11.2108 9 10.9564 8.89464 10.7689 8.70711C10.5814 8.51956 10.476 8.26521 10.476 8V4.99999C10.476 4.20435 10.1599 3.44128 9.59731 2.87868C9.03471 2.31607 8.27165 1.99999 7.476 1.99999H4.99999C4.20435 1.99999 3.44128 2.31607 2.87868 2.87868C2.31607 3.44128 1.99999 4.20435 1.99999 4.99999V19C1.99999 19.7957 2.31607 20.5587 2.87868 21.1213C3.44128 21.684 4.20435 22 4.99999 22H7.476C8.27165 22 9.03471 21.684 9.59731 21.1213C10.1599 20.5587 10.476 19.7957 10.476 19V16C10.476 15.7349 10.5814 15.4804 10.7689 15.2929C10.9564 15.1053 11.2108 15 11.476 15C11.7412 15 11.9956 15.1053 12.1831 15.2929C12.3707 15.4804 12.476 15.7349 12.476 16V19C12.4744 20.3256 11.9471 21.5964 11.0098 22.5338C10.0724 23.4711 8.8016 23.9984 7.476 24H4.99999C3.6744 23.9984 2.40355 23.4711 1.46622 22.5338C0.528882 21.5964 0.00158785 20.3256 0 19V4.99999C0.00158785 3.6744 0.528882 2.40355 1.46622 1.46622C2.40355 0.52888 3.6744 0.00158643 4.99999 0H7.476C8.8016 0.00158643 10.0724 0.52888 11.0098 1.46622C11.9471 2.40355 12.4744 3.6744 12.476 4.99999V8C12.476 8.26521 12.3707 8.51956 12.1831 8.70711C11.9956 8.89464 11.7412 9 11.476 9Z" fill="white"/>
<path d="M22.8674 14.1208L18.2815 18.7069C18.1892 18.8024 18.0788 18.8785 17.9569 18.931C17.8349 18.9833 17.7037 19.0109 17.5709 19.0121C17.438 19.0132 17.3065 18.988 17.1835 18.9377C17.0606 18.8873 16.949 18.8131 16.8551 18.7192C16.7612 18.6253 16.687 18.5137 16.6366 18.3908C16.5863 18.268 16.5611 18.1363 16.5622 18.0034C16.5634 17.8706 16.591 17.7394 16.6433 17.6174C16.6958 17.4955 16.772 17.3851 16.8674 17.2928L21.1295 13.0298L6.00048 12.9998C5.73526 12.9998 5.48091 12.8945 5.29338 12.7069C5.10583 12.5194 5.00049 12.2651 5.00049 11.9998C5.00049 11.7346 5.10583 11.4803 5.29338 11.2927C5.48091 11.1052 5.73526 10.9998 6.00048 10.9998L21.1885 11.0308L16.8655 6.70684C16.7699 6.61459 16.6937 6.50425 16.6414 6.38224C16.589 6.26025 16.5614 6.12903 16.5602 5.99625C16.559 5.86347 16.5844 5.73178 16.6346 5.60889C16.6849 5.48599 16.7591 5.37433 16.853 5.28045C16.9469 5.18655 17.0587 5.1123 17.1815 5.06202C17.3044 5.01174 17.4361 4.98643 17.5688 4.98759C17.7017 4.98874 17.8328 5.01633 17.9549 5.06874C18.0769 5.12115 18.1873 5.19733 18.2795 5.29284L22.8655 9.87885C23.4281 10.4412 23.7445 11.2039 23.7448 11.9994C23.7452 12.7949 23.4296 13.558 22.8674 14.1208Z" fill="white"/>
</svg>
