<svg width="76" height="77" viewBox="0 0 76 77" fill="none" xmlns="http://www.w3.org/2000/svg">
<path d="M24.2667 57.4584L37.9167 43.8084L51.5667 57.4584L56.875 52.15L43.225 38.5L56.875 24.85L51.5667 19.5417L37.9167 33.1917L24.2667 19.5417L18.9583 24.85L32.6083 38.5L18.9583 52.15L24.2667 57.4584ZM37.9167 76.4167C32.6715 76.4167 27.7424 75.4208 23.1292 73.4289C18.516 71.437 14.5031 68.7361 11.0906 65.3261C7.67813 61.9136 4.97719 57.9007 2.98783 53.2875C0.998473 48.6743 0.00252778 43.7452 0 38.5C0 33.2549 0.995945 28.3257 2.98783 23.7125C4.97972 19.0993 7.68065 15.0865 11.0906 11.674C14.5031 8.2615 18.516 5.56057 23.1292 3.57121C27.7424 1.58185 32.6715 0.585902 37.9167 0.583374C43.1618 0.583374 48.091 1.57932 52.7042 3.57121C57.3174 5.5631 61.3302 8.26403 64.7427 11.674C68.1552 15.0865 70.8574 19.0993 72.8493 23.7125C74.8412 28.3257 75.8359 33.2549 75.8333 38.5C75.8333 43.7452 74.8374 48.6743 72.8455 53.2875C70.8536 57.9007 68.1527 61.9136 64.7427 65.3261C61.3302 68.7386 57.3174 71.4408 52.7042 73.4327C48.091 75.4246 43.1618 76.4192 37.9167 76.4167Z" fill="#767676"/>
</svg>
