<svg width="91" height="91" viewBox="0 0 91 91" fill="none" xmlns="http://www.w3.org/2000/svg">
<path fill-rule="evenodd" clip-rule="evenodd" d="M12.0257 12.0257C7.5835 16.468 7.5835 23.6176 7.5835 37.9169V53.0835C7.5835 67.3828 7.5835 74.5324 12.0257 78.9747C16.4679 83.4169 23.6176 83.4169 37.9168 83.4169H53.0835C67.3828 83.4169 74.5324 83.4169 78.9746 78.9747C83.4168 74.5324 83.4168 67.3828 83.4168 53.0835V37.9169C83.4168 27.151 83.4168 20.438 81.521 15.8818V64.4585C77.8793 64.4585 74.3869 63.0119 71.8118 60.4369L68.9618 57.5868C66.2268 54.8518 64.8593 53.4844 63.3088 52.9081C61.6044 52.2746 59.7292 52.2746 58.0249 52.9081C56.4743 53.4844 55.1068 54.8518 52.3719 57.5868L51.9429 58.0158C49.7235 60.2352 48.6137 61.345 47.4346 61.5519C46.5182 61.7127 45.5747 61.531 44.7836 61.0414C43.7656 60.4113 43.1474 58.9688 41.911 56.0838L41.7085 55.6113C38.8661 48.9791 37.4449 45.663 34.9657 44.4201C33.7175 43.7944 32.3208 43.5254 30.9295 43.6428C28.166 43.876 25.6149 46.4271 20.5127 51.5294L13.271 58.771V10.9482C12.8327 11.2747 12.4186 11.6329 12.0257 12.0257Z" fill="#767676"/>
<path d="M11.3752 37.9167C11.3752 30.6599 11.3832 25.5987 11.8966 21.78C12.3954 18.0703 13.3076 16.1059 14.7068 14.7067C16.106 13.3075 18.0705 12.3953 21.7801 11.8965C25.5988 11.3831 30.66 11.375 37.9168 11.375H53.0835C60.3403 11.375 65.4015 11.3831 69.2202 11.8965C72.9299 12.3953 74.8943 13.3075 76.2935 14.7067C77.6927 16.1059 78.6049 18.0703 79.1037 21.78C79.6171 25.5987 79.6252 30.6599 79.6252 37.9167V53.0834C79.6252 60.3402 79.6171 65.4014 79.1037 69.2201C78.6049 72.9297 77.6927 74.8942 76.2935 76.2934C74.8943 77.6926 72.9299 78.6048 69.2202 79.1036C65.4015 79.617 60.3403 79.625 53.0835 79.625H37.9168C30.66 79.625 25.5988 79.617 21.7801 79.1036C18.0705 78.6048 16.106 77.6926 14.7068 76.2934C13.3076 74.8942 12.3954 72.9297 11.8966 69.2201C11.3832 65.4014 11.3752 60.3402 11.3752 53.0834V37.9167Z" stroke="#767676" stroke-width="7.58333"/>
<circle cx="56.8748" cy="34.125" r="7.58333" fill="#767676"/>
</svg>
