<svg width="336" height="51" viewBox="0 0 336 51" fill="none" xmlns="http://www.w3.org/2000/svg">
<path d="M59.44 47V35.832H66.48V37H60.784V40.76H66V41.928H60.784V47H59.44ZM72.9058 36.92C72.5324 36.92 72.2711 36.8453 72.1218 36.696C71.9724 36.536 71.8978 36.3387 71.8978 36.104V35.848C71.8978 35.6133 71.9724 35.4213 72.1218 35.272C72.2711 35.112 72.5324 35.032 72.9058 35.032C73.2791 35.032 73.5404 35.112 73.6898 35.272C73.8391 35.4213 73.9138 35.6133 73.9138 35.848V36.104C73.9138 36.3387 73.8391 36.536 73.6898 36.696C73.5404 36.8453 73.2791 36.92 72.9058 36.92ZM69.2898 45.912H72.2658V39.832H69.2898V38.744H73.5458V45.912H76.3298V47H69.2898V45.912ZM82.3875 47C81.7582 47 81.2942 46.824 80.9955 46.472C80.7075 46.12 80.5635 45.6667 80.5635 45.112V39.832H77.8115V38.744H79.8595C80.1368 38.744 80.3288 38.6907 80.4355 38.584C80.5528 38.4667 80.6115 38.2693 80.6115 37.992V35.832H81.8435V38.744H85.6035V39.832H81.8435V45.912H85.6035V47H82.3875ZM101.687 36.92C101.314 36.92 101.052 36.8453 100.903 36.696C100.754 36.536 100.679 36.3387 100.679 36.104V35.848C100.679 35.6133 100.754 35.4213 100.903 35.272C101.052 35.112 101.314 35.032 101.687 35.032C102.06 35.032 102.322 35.112 102.471 35.272C102.62 35.4213 102.695 35.6133 102.695 35.848V36.104C102.695 36.3387 102.62 36.536 102.471 36.696C102.322 36.8453 102.06 36.92 101.687 36.92ZM98.071 45.912H101.047V39.832H98.071V38.744H102.327V45.912H105.111V47H98.071V45.912ZM107.537 47V38.744H108.817V40.088H108.881C108.966 39.8853 109.073 39.6933 109.201 39.512C109.329 39.32 109.483 39.1547 109.665 39.016C109.857 38.8773 110.081 38.7653 110.337 38.68C110.593 38.5947 110.891 38.552 111.233 38.552C112.097 38.552 112.79 38.8293 113.313 39.384C113.835 39.928 114.097 40.7013 114.097 41.704V47H112.817V41.928C112.817 41.1707 112.651 40.6107 112.321 40.248C111.99 39.8747 111.505 39.688 110.865 39.688C110.609 39.688 110.358 39.72 110.113 39.784C109.867 39.848 109.649 39.944 109.457 40.072C109.265 40.2 109.11 40.3653 108.993 40.568C108.875 40.7707 108.817 41.0053 108.817 41.272V47H107.537ZM132.628 38.744H133.908L129.812 48.808C129.716 49.0427 129.61 49.2453 129.492 49.416C129.375 49.5973 129.236 49.7413 129.076 49.848C128.916 49.9653 128.724 50.0507 128.5 50.104C128.276 50.168 128.01 50.2 127.7 50.2H126.484V49.112H128.404L129.332 46.84L126.004 38.744H127.316L128.708 42.2L129.94 45.336H130.004L131.236 42.2L132.628 38.744ZM139.55 47.192C138.974 47.192 138.451 47.0907 137.982 46.888C137.523 46.6853 137.129 46.3973 136.798 46.024C136.478 45.64 136.233 45.1867 136.062 44.664C135.891 44.1307 135.806 43.5333 135.806 42.872C135.806 42.2213 135.891 41.6293 136.062 41.096C136.233 40.5627 136.478 40.1093 136.798 39.736C137.129 39.352 137.523 39.0587 137.982 38.856C138.451 38.6533 138.974 38.552 139.55 38.552C140.126 38.552 140.643 38.6533 141.102 38.856C141.571 39.0587 141.966 39.352 142.286 39.736C142.617 40.1093 142.867 40.5627 143.038 41.096C143.209 41.6293 143.294 42.2213 143.294 42.872C143.294 43.5333 143.209 44.1307 143.038 44.664C142.867 45.1867 142.617 45.64 142.286 46.024C141.966 46.3973 141.571 46.6853 141.102 46.888C140.643 47.0907 140.126 47.192 139.55 47.192ZM139.55 46.088C140.265 46.088 140.841 45.8747 141.278 45.448C141.715 45.0213 141.934 44.36 141.934 43.464V42.28C141.934 41.384 141.715 40.7227 141.278 40.296C140.841 39.8693 140.265 39.656 139.55 39.656C138.835 39.656 138.259 39.8693 137.822 40.296C137.385 40.7227 137.166 41.384 137.166 42.28V43.464C137.166 44.36 137.385 45.0213 137.822 45.448C138.259 45.8747 138.835 46.088 139.55 46.088ZM151.096 45.656H151.032C150.946 45.8587 150.84 46.056 150.712 46.248C150.584 46.4293 150.424 46.5893 150.232 46.728C150.05 46.8667 149.832 46.9787 149.576 47.064C149.32 47.1493 149.021 47.192 148.68 47.192C147.816 47.192 147.122 46.92 146.6 46.376C146.077 45.8213 145.816 45.0427 145.816 44.04V38.744H147.096V43.816C147.096 44.5733 147.261 45.1387 147.592 45.512C147.922 45.8747 148.408 46.056 149.048 46.056C149.304 46.056 149.554 46.024 149.8 45.96C150.045 45.896 150.264 45.8 150.456 45.672C150.648 45.544 150.802 45.384 150.92 45.192C151.037 44.9893 151.096 44.7493 151.096 44.472V38.744H152.376V47H151.096V45.656ZM155.17 45.912H157.586V39.832H155.17V38.744H158.866V40.824H158.946C159.116 40.1733 159.436 39.6667 159.906 39.304C160.386 38.9307 160.994 38.744 161.73 38.744H162.882V40.024H161.33C160.594 40.024 159.996 40.2373 159.538 40.664C159.09 41.0907 158.866 41.6507 158.866 42.344V45.912H162.066V47H155.17V45.912ZM178.213 47.192C177.616 47.192 177.082 47.0907 176.613 46.888C176.154 46.6747 175.765 46.3813 175.445 46.008C175.125 45.6347 174.88 45.1813 174.709 44.648C174.549 44.1147 174.469 43.5227 174.469 42.872C174.469 42.2213 174.554 41.6293 174.725 41.096C174.896 40.5627 175.141 40.1093 175.461 39.736C175.781 39.352 176.17 39.0587 176.629 38.856C177.088 38.6533 177.61 38.552 178.197 38.552C178.997 38.552 179.648 38.728 180.149 39.08C180.65 39.432 181.018 39.8907 181.253 40.456L180.229 41C180.08 40.5733 179.829 40.2427 179.477 40.008C179.136 39.7733 178.709 39.656 178.197 39.656C177.824 39.656 177.488 39.72 177.189 39.848C176.901 39.9653 176.656 40.136 176.453 40.36C176.25 40.584 176.096 40.8507 175.989 41.16C175.893 41.4693 175.845 41.8053 175.845 42.168V43.576C175.845 43.9387 175.893 44.2747 175.989 44.584C176.096 44.8933 176.25 45.16 176.453 45.384C176.656 45.608 176.906 45.784 177.205 45.912C177.504 46.0293 177.845 46.088 178.229 46.088C178.784 46.088 179.242 45.96 179.605 45.704C179.968 45.448 180.256 45.096 180.469 44.648L181.381 45.272C181.136 45.8267 180.752 46.2853 180.229 46.648C179.717 47.0107 179.045 47.192 178.213 47.192ZM184.287 35.16H185.567V40.088H185.631C185.716 39.8853 185.823 39.6933 185.951 39.512C186.079 39.32 186.233 39.1547 186.415 39.016C186.607 38.8773 186.831 38.7653 187.087 38.68C187.343 38.5947 187.641 38.552 187.983 38.552C188.847 38.552 189.54 38.8293 190.063 39.384C190.585 39.928 190.847 40.7013 190.847 41.704V47H189.567V41.928C189.567 41.1707 189.401 40.6107 189.071 40.248C188.74 39.8747 188.255 39.688 187.615 39.688C187.359 39.688 187.108 39.72 186.863 39.784C186.617 39.848 186.399 39.944 186.207 40.072C186.015 40.2 185.86 40.3653 185.743 40.568C185.625 40.7707 185.567 41.0053 185.567 41.272V47H184.287V35.16ZM200.233 47C199.731 47 199.374 46.872 199.161 46.616C198.947 46.36 198.814 46.04 198.761 45.656H198.681C198.499 46.136 198.206 46.5147 197.801 46.792C197.406 47.0587 196.873 47.192 196.201 47.192C195.337 47.192 194.649 46.968 194.137 46.52C193.625 46.072 193.368 45.4587 193.368 44.68C193.368 43.912 193.646 43.32 194.201 42.904C194.766 42.488 195.673 42.28 196.921 42.28H198.681V41.464C198.681 40.856 198.51 40.4027 198.169 40.104C197.827 39.7947 197.342 39.64 196.713 39.64C196.158 39.64 195.705 39.752 195.353 39.976C195.001 40.1893 194.718 40.4827 194.505 40.856L193.641 40.216C193.747 40.0027 193.891 39.7947 194.073 39.592C194.254 39.3893 194.478 39.2133 194.745 39.064C195.011 38.904 195.315 38.7813 195.657 38.696C195.998 38.6 196.377 38.552 196.793 38.552C197.763 38.552 198.531 38.7973 199.097 39.288C199.673 39.7787 199.961 40.4613 199.961 41.336V45.88H201.113V47H200.233ZM196.424 46.12C196.755 46.12 197.054 46.0827 197.321 46.008C197.598 45.9227 197.838 45.816 198.041 45.688C198.243 45.5493 198.398 45.3893 198.505 45.208C198.622 45.016 198.681 44.8133 198.681 44.6V43.24H196.921C196.153 43.24 195.593 43.3467 195.241 43.56C194.889 43.7733 194.713 44.0827 194.713 44.488V44.824C194.713 45.2507 194.862 45.576 195.161 45.8C195.47 46.0133 195.891 46.12 196.424 46.12ZM207.218 36.92C206.845 36.92 206.584 36.8453 206.434 36.696C206.285 36.536 206.21 36.3387 206.21 36.104V35.848C206.21 35.6133 206.285 35.4213 206.434 35.272C206.584 35.112 206.845 35.032 207.218 35.032C207.592 35.032 207.853 35.112 208.002 35.272C208.152 35.4213 208.226 35.6133 208.226 35.848V36.104C208.226 36.3387 208.152 36.536 208.002 36.696C207.853 36.8453 207.592 36.92 207.218 36.92ZM203.602 45.912H206.578V39.832H203.602V38.744H207.858V45.912H210.642V47H203.602V45.912ZM213.068 47V38.744H214.348V40.088H214.412C214.497 39.8853 214.604 39.6933 214.732 39.512C214.86 39.32 215.015 39.1547 215.196 39.016C215.388 38.8773 215.612 38.7653 215.868 38.68C216.124 38.5947 216.423 38.552 216.764 38.552C217.628 38.552 218.321 38.8293 218.844 39.384C219.367 39.928 219.628 40.7013 219.628 41.704V47H218.348V41.928C218.348 41.1707 218.183 40.6107 217.852 40.248C217.521 39.8747 217.036 39.688 216.396 39.688C216.14 39.688 215.889 39.72 215.644 39.784C215.399 39.848 215.18 39.944 214.988 40.072C214.796 40.2 214.641 40.3653 214.524 40.568C214.407 40.7707 214.348 41.0053 214.348 41.272V47H213.068ZM225.894 47.144C225.456 47.144 225.147 47.0533 224.966 46.872C224.795 46.6907 224.71 46.4613 224.71 46.184V45.896C224.71 45.6187 224.795 45.3893 224.966 45.208C225.147 45.0267 225.456 44.936 225.894 44.936C226.331 44.936 226.635 45.0267 226.806 45.208C226.987 45.3893 227.078 45.6187 227.078 45.896V46.184C227.078 46.4613 226.987 46.6907 226.806 46.872C226.635 47.0533 226.331 47.144 225.894 47.144Z" fill="white"/>
<path d="M64.6467 14.4691L62.7045 17.2055V23.6223H58V1.66746H62.701V10.8527H62.9531L65.3355 7.20428L69.1915 1.66746H74.457L67.9062 10.9454L74.7695 23.6223H69.472L64.6467 14.4691Z" fill="white"/>
<path d="M89.9411 23.6223C88.9789 23.6223 88.2049 23.3765 87.6226 22.8812C87.0368 22.3896 86.6923 21.6805 86.5894 20.7577H86.4332C86.1385 21.8266 85.5597 22.6354 84.6934 23.1805C83.827 23.7257 82.7654 24 81.512 24C79.9462 24 78.6858 23.576 77.7342 22.7245C76.7826 21.8765 76.3069 20.6865 76.3069 19.1544C76.3069 17.4549 76.9247 16.1971 78.1567 15.3812C79.3888 14.5618 81.196 14.1556 83.5785 14.1556H86.1811V13.3361C86.1811 12.3705 85.9574 11.6437 85.5065 11.1485C85.0555 10.6568 84.2992 10.4109 83.2341 10.4109C82.2506 10.4109 81.4588 10.5998 80.8516 10.9774C80.2445 11.3551 79.7225 11.8468 79.2858 12.4561L76.7471 10.19C77.2904 9.26722 78.1425 8.50831 79.3036 7.90974C80.4646 7.31116 81.9523 7.01188 83.7702 7.01188C85.9858 7.01188 87.7149 7.52138 88.9576 8.53682C90.2003 9.55582 90.8217 11.0914 90.8217 13.1437V20.2518H92.6076V23.6188H89.9411V23.6223ZM83.266 20.9501C84.0827 20.9501 84.7715 20.7506 85.336 20.3515C85.9006 19.9525 86.1811 19.3753 86.1811 18.62V16.671H83.7063C81.8032 16.671 80.8552 17.3124 80.8552 18.5914V19.2221C80.8552 19.7886 81.0753 20.2197 81.512 20.5119C81.9488 20.804 82.5346 20.9501 83.266 20.9501Z" fill="white"/>
<path d="M95.5227 23.6223V7.39311H100.163V10.3504H100.351C100.54 9.89074 100.77 9.45962 101.04 9.06057C101.31 8.66152 101.64 8.31235 102.027 8.00594C102.414 7.70309 102.862 7.46081 103.377 7.28266C103.888 7.10451 104.467 7.01544 105.116 7.01544C105.89 7.01544 106.601 7.14727 107.247 7.40736C107.893 7.67102 108.447 8.06295 108.908 8.5867C109.366 9.11045 109.729 9.75178 109.991 10.5071C110.251 11.2625 110.382 12.1318 110.382 13.1188V23.6223H105.741V13.7458C105.741 11.6473 104.832 10.5998 103.014 10.5998C102.659 10.5998 102.308 10.6461 101.963 10.7423C101.619 10.8385 101.31 10.9846 101.04 11.1841C100.767 11.3836 100.554 11.6295 100.398 11.9216C100.241 12.2138 100.163 12.5629 100.163 12.9584V23.6223H95.5227Z" fill="white"/>
<path d="M124.613 20.6366H124.393C123.974 21.6306 123.395 22.4394 122.653 23.0629C121.911 23.6865 120.892 24 119.596 24C118.697 24 117.877 23.8325 117.135 23.4976C116.393 23.1627 115.758 22.6496 115.221 21.9549C114.685 21.2601 114.27 20.3836 113.968 19.3112C113.666 18.2423 113.514 16.9739 113.514 15.5059C113.514 14.038 113.666 12.7696 113.968 11.7007C114.27 10.6318 114.689 9.75178 115.221 9.05701C115.754 8.36223 116.393 7.85273 117.135 7.51425C117.877 7.17934 118.697 7.01188 119.596 7.01188C120.242 7.01188 120.817 7.09739 121.321 7.26485C121.825 7.4323 122.266 7.66746 122.653 7.96318C123.04 8.25891 123.374 8.61164 123.658 9.02494C123.938 9.43824 124.187 9.88717 124.393 10.3753H124.613V0.345606H129.253V23.6223H124.613V20.6366ZM121.602 20.3515C122.418 20.3515 123.121 20.1556 123.718 19.7565C124.314 19.361 124.613 18.734 124.613 17.8824V13.133C124.613 12.2779 124.314 11.6544 123.718 11.2589C123.121 10.8634 122.418 10.6639 121.602 10.6639C120.558 10.6639 119.752 10.981 119.187 11.6188C118.623 12.253 118.342 13.133 118.342 14.2589V16.7601C118.342 17.886 118.623 18.766 119.187 19.4002C119.752 20.0344 120.558 20.3515 121.602 20.3515Z" fill="white"/>
<path d="M134.047 19.9739H139.188V11.0416H134.047V7.39311H143.825V19.9739H148.59V23.6223H134.047V19.9739ZM141.506 5.31591C140.463 5.31591 139.735 5.10214 139.326 4.67102C138.918 4.2399 138.716 3.72328 138.716 3.11401V2.2019C138.716 1.57126 138.918 1.04751 139.326 0.630641C139.735 0.210214 140.463 0 141.506 0C142.55 0 143.278 0.210214 143.686 0.630641C144.095 1.05107 144.297 1.57482 144.297 2.2019V3.11401C144.297 3.72328 144.095 4.2399 143.686 4.67102C143.278 5.10214 142.55 5.31591 141.506 5.31591Z" fill="white"/>
<path d="M159.124 24C157.328 24 155.766 23.7256 154.438 23.1805C153.11 22.6354 152.112 21.8907 151.445 20.9466L154.047 18.5238C154.676 19.215 155.411 19.7565 156.256 20.1449C157.101 20.5333 158.07 20.7257 159.156 20.7257C160.076 20.7257 160.797 20.5831 161.319 20.3017C161.841 20.0202 162.103 19.5819 162.103 18.9976C162.103 18.538 161.926 18.2173 161.571 18.0392C161.216 17.861 160.726 17.7185 160.097 17.6152L157.495 17.2055C156.763 17.1021 156.085 16.9382 155.457 16.7173C154.828 16.4964 154.285 16.1971 153.827 15.8195C153.365 15.4418 153 14.9822 152.73 14.4371C152.456 13.8919 152.322 13.2328 152.322 12.4561C152.322 10.7565 152.968 9.42755 154.264 8.462C155.56 7.49644 157.378 7.01544 159.717 7.01544C161.305 7.01544 162.657 7.22922 163.776 7.66033C164.894 8.09145 165.785 8.70428 166.456 9.49881L164.138 12.1425C163.659 11.6188 163.041 11.177 162.288 10.8207C161.535 10.4644 160.626 10.2862 159.561 10.2862C157.765 10.2862 156.866 10.8314 156.866 11.9216C156.866 12.4026 157.044 12.734 157.399 12.9121C157.754 13.0903 158.244 13.2328 158.872 13.3361L161.443 13.7458C162.174 13.8492 162.853 14.0131 163.481 14.234C164.109 14.4549 164.656 14.7542 165.129 15.1318C165.597 15.5095 165.97 15.9691 166.24 16.5142C166.51 17.0594 166.648 17.7221 166.648 18.4952C166.648 20.1948 165.995 21.5344 164.688 22.5214C163.382 23.5083 161.525 24 159.124 24Z" fill="white"/>
<path d="M189.905 23.6223V1.66746H198.369C199.434 1.66746 200.386 1.83135 201.22 2.15558C202.055 2.47981 202.761 2.94656 203.336 3.55582C203.912 4.16508 204.345 4.89905 204.636 5.75772C204.927 6.61639 205.076 7.58195 205.076 8.65083C205.076 9.71972 204.931 10.6853 204.636 11.5439C204.341 12.4026 203.908 13.1366 203.336 13.7458C202.761 14.3551 202.055 14.8219 201.22 15.1461C200.386 15.4703 199.434 15.6342 198.369 15.6342H194.637V23.6223H189.905ZM194.637 11.829H197.176C198.284 11.829 199.051 11.6188 199.481 11.1983C199.91 10.7779 200.123 10.0867 200.123 9.12114V8.17696C200.123 7.2114 199.91 6.52019 199.481 6.09976C199.051 5.67934 198.284 5.46912 197.176 5.46912H194.637V11.829Z" fill="white"/>
<path d="M208.652 19.9739H212.383V11.0416H208.652V7.39311H217.02V11.9857H217.241C217.386 11.3979 217.592 10.8278 217.851 10.272C218.114 9.71615 218.448 9.22447 218.856 8.79335C219.264 8.36223 219.758 8.02375 220.344 7.77078C220.93 7.51781 221.618 7.39311 222.414 7.39311H223.951V11.6722H220.504C219.353 11.6722 218.487 12.0107 217.901 12.6912C217.315 13.3717 217.024 14.2019 217.024 15.1817V19.9774H222.353V23.6223H208.652V19.9739Z" fill="white"/>
<path d="M234.543 24C233.289 24 232.16 23.8076 231.155 23.4192C230.151 23.0309 229.302 22.4715 228.599 21.7375C227.899 21.0036 227.36 20.1128 226.983 19.0653C226.607 18.0178 226.419 16.8314 226.419 15.5095C226.419 14.1876 226.607 13.0047 226.983 11.9537C227.36 10.9062 227.896 10.0154 228.599 9.28147C229.298 8.54751 230.151 7.98812 231.155 7.59976C232.16 7.2114 233.286 7.019 234.543 7.019C235.796 7.019 236.925 7.2114 237.926 7.59976C238.931 7.98812 239.78 8.54751 240.483 9.28147C241.182 10.0154 241.722 10.9062 242.098 11.9537C242.475 13.0012 242.663 14.1876 242.663 15.5095C242.663 16.8314 242.475 18.0142 242.098 19.0653C241.722 20.1128 241.182 21.0036 240.483 21.7375C239.783 22.4715 238.931 23.0344 237.926 23.4192C236.925 23.8076 235.796 24 234.543 24ZM234.543 20.5404C235.587 20.5404 236.403 20.2162 236.989 19.5641C237.575 18.9157 237.866 17.9929 237.866 16.7957V14.2162C237.866 13.0226 237.575 12.0998 236.989 11.4477C236.403 10.7993 235.59 10.4715 234.543 10.4715C233.499 10.4715 232.682 10.7957 232.096 11.4477C231.51 12.0998 231.219 13.019 231.219 14.2162V16.7957C231.219 17.9893 231.51 18.9157 232.096 19.5641C232.682 20.2162 233.499 20.5404 234.543 20.5404Z" fill="white"/>
<path d="M254.604 23.6223C252.931 23.6223 251.688 23.1841 250.872 22.304C250.055 21.424 249.65 20.3052 249.65 18.9477V11.0416H245.262V7.39311H248.113C248.802 7.39311 249.292 7.25772 249.587 6.98337C249.878 6.71259 250.027 6.20665 250.027 5.47268V1.66746H254.291V7.39311H260.593V11.0416H254.291V19.9739H260.593V23.6223H254.604Z" fill="white"/>
<path d="M272.158 24C270.904 24 269.775 23.8076 268.77 23.4192C267.766 23.0309 266.917 22.4715 266.214 21.7375C265.514 21.0036 264.975 20.1128 264.598 19.0653C264.222 18.0178 264.034 16.8314 264.034 15.5095C264.034 14.1876 264.222 13.0047 264.598 11.9537C264.975 10.9062 265.511 10.0154 266.214 9.28147C266.913 8.54751 267.766 7.98812 268.77 7.59976C269.775 7.2114 270.901 7.019 272.158 7.019C273.411 7.019 274.54 7.2114 275.541 7.59976C276.546 7.98812 277.395 8.54751 278.098 9.28147C278.797 10.0154 279.337 10.9062 279.713 11.9537C280.09 13.0012 280.278 14.1876 280.278 15.5095C280.278 16.8314 280.09 18.0142 279.713 19.0653C279.337 20.1128 278.797 21.0036 278.098 21.7375C277.398 22.4715 276.546 23.0344 275.541 23.4192C274.54 23.8076 273.411 24 272.158 24ZM272.158 20.5404C273.202 20.5404 274.018 20.2162 274.604 19.5641C275.19 18.9157 275.481 17.9929 275.481 16.7957V14.2162C275.481 13.0226 275.19 12.0998 274.604 11.4477C274.018 10.7993 273.205 10.4715 272.158 10.4715C271.114 10.4715 270.297 10.7957 269.711 11.4477C269.125 12.0998 268.834 13.019 268.834 14.2162V16.7957C268.834 17.9893 269.125 18.9157 269.711 19.5641C270.297 20.2162 271.114 20.5404 272.158 20.5404Z" fill="white"/>
<path d="M291.626 24C290.351 24 289.208 23.8076 288.192 23.4192C287.177 23.0309 286.321 22.4715 285.621 21.7375C284.922 21.0036 284.382 20.1128 284.006 19.0653C283.63 18.0178 283.441 16.8314 283.441 15.5095C283.441 14.1876 283.63 13.0047 284.006 11.9537C284.382 10.9062 284.918 10.0154 285.621 9.28147C286.321 8.54751 287.177 7.98812 288.192 7.59976C289.204 7.2114 290.34 7.019 291.594 7.019C293.369 7.019 294.796 7.38242 295.872 8.1057C296.948 8.82898 297.768 9.78741 298.333 10.9846L294.761 12.9335C294.466 12.3028 294.086 11.7791 293.617 11.3622C293.149 10.9418 292.474 10.7316 291.597 10.7316C290.532 10.7316 289.712 11.0416 289.137 11.658C288.561 12.2779 288.274 13.1188 288.274 14.1912V16.8349C288.274 17.9038 288.561 18.7482 289.137 19.3682C289.712 19.9881 290.553 20.2945 291.661 20.2945C292.559 20.2945 293.266 20.0843 293.777 19.6639C294.288 19.2435 294.722 18.6983 295.077 18.0285L298.588 20.0416C298.002 21.2352 297.15 22.1971 296.032 22.9204C294.91 23.6401 293.443 24 291.626 24Z" fill="white"/>
<path d="M309.773 24C308.519 24 307.39 23.8076 306.385 23.4192C305.381 23.0309 304.532 22.4715 303.829 21.7375C303.129 21.0036 302.59 20.1128 302.213 19.0653C301.837 18.0178 301.649 16.8314 301.649 15.5095C301.649 14.1876 301.837 13.0047 302.213 11.9537C302.59 10.9062 303.126 10.0154 303.829 9.28147C304.528 8.54751 305.381 7.98812 306.385 7.59976C307.39 7.2114 308.516 7.019 309.773 7.019C311.026 7.019 312.155 7.2114 313.156 7.59976C314.161 7.98812 315.01 8.54751 315.713 9.28147C316.412 10.0154 316.952 10.9062 317.328 11.9537C317.705 13.0012 317.893 14.1876 317.893 15.5095C317.893 16.8314 317.705 18.0142 317.328 19.0653C316.952 20.1128 316.412 21.0036 315.713 21.7375C315.013 22.4715 314.161 23.0344 313.156 23.4192C312.155 23.8076 311.03 24 309.773 24ZM309.773 20.5404C310.816 20.5404 311.633 20.2162 312.219 19.5641C312.805 18.9157 313.096 17.9929 313.096 16.7957V14.2162C313.096 13.0226 312.805 12.0998 312.219 11.4477C311.633 10.7993 310.82 10.4715 309.773 10.4715C308.729 10.4715 307.912 10.7957 307.326 11.4477C306.74 12.0998 306.449 13.019 306.449 14.2162V16.7957C306.449 17.9893 306.74 18.9157 307.326 19.5641C307.916 20.2162 308.729 20.5404 309.773 20.5404Z" fill="white"/>
<path d="M321.309 19.9739H326.262V3.99406H264.041V0.345606H329.123C330.107 0.345606 330.902 1.14371 330.902 2.13064V19.9739H335.855V23.6223H321.312V19.9739H321.309Z" fill="white"/>
<path d="M48.0842 51H2.91585C1.30503 51 0 49.695 0 48.0842V2.91585C0 1.30503 1.30503 0 2.91585 0H48.0787C49.695 0 51 1.30503 51 2.91585V48.0787C51 49.695 49.695 51 48.0842 51Z" fill="#FAD64B"/>
<path d="M24.3532 25.5437C22.7588 27.4166 20.2852 28.0719 18.0465 27.2528C17.0308 26.8815 16.1681 26.2208 15.5402 25.358C15.1634 25.8167 14.8631 26.3409 14.6501 26.9143C14.3443 27.7442 14.246 28.607 14.3334 29.4424C15.9388 30.6164 17.9482 31.2989 20.176 31.3317C22.6277 31.3262 24.9539 30.4198 26.7285 28.465C25.9422 27.4931 25.1504 26.5211 24.3532 25.5437ZM39.7952 6.21393C37.8568 1.53984 32.1452 0.245732 28.099 3.51104C23.4959 7.2241 18.9038 10.959 14.2843 14.6557C11.0463 17.2439 9.78491 21.2191 11.0626 24.9813C11.1172 25.1451 11.1773 25.3034 11.2428 25.4618C11.9035 23.7254 13.0229 22.2565 14.4754 21.2027C14.661 19.9031 15.3217 18.6582 16.5012 17.6971C21.1807 13.8858 25.8767 10.0908 30.5781 6.30676C32.2053 4.99627 34.2092 5.09455 35.6071 6.50333C36.9831 7.89027 37.0541 9.89969 35.7381 11.5378C32.8987 15.0488 30.0429 18.5489 27.1926 22.06C27.0506 22.2347 26.9087 22.4094 26.7667 22.5896C26.936 22.7698 27.0998 22.9609 27.2581 23.1575C27.897 23.9547 28.5359 24.7465 29.1747 25.5437C32.4455 21.5685 35.6781 17.5661 38.8669 13.5308C40.5924 11.3358 40.8709 8.7967 39.7952 6.21393Z" fill="white"/>
<path d="M38.3974 36.9723C35.3232 33.1609 32.2381 29.355 29.1693 25.5437C28.4486 26.4228 27.7223 27.2965 27.0016 28.1701C26.9142 28.2739 26.8268 28.3776 26.7395 28.4759C29.7044 32.1289 32.6585 35.7928 35.6071 39.4568C36.9176 41.084 36.8193 43.0879 35.4106 44.4858C34.0236 45.8618 32.0142 45.9328 30.3761 44.6168C26.8596 41.7774 23.3595 38.9216 19.8485 36.0713C18.6963 35.1376 17.5278 34.2148 16.392 33.2592C15.1962 32.2545 14.4864 30.8894 14.3335 29.4533C12.9629 28.4486 11.8872 27.0835 11.2374 25.4618C10.817 26.5648 10.5822 27.777 10.5658 29.0547C10.5713 31.6266 11.5705 34.0728 13.7383 35.8693C18.5707 39.8827 23.4523 43.836 28.3776 47.7292C30.5672 49.4602 33.1063 49.7387 35.689 48.6684C40.3686 46.7245 41.6627 41.0184 38.3974 36.9723Z" fill="black"/>
<path d="M26.7667 22.5841C25.975 23.567 25.1941 24.5498 24.3805 25.5108C24.3696 25.5218 24.3641 25.5327 24.3532 25.5436C24.3095 25.489 24.2604 25.4289 24.2167 25.3743C23.1028 24.0092 21.6066 23.3376 20.0887 23.2939C18.2157 23.2994 16.5885 24.0911 15.5402 25.3634C14.8303 24.3969 14.4208 23.1738 14.4208 21.8196C14.4262 21.6121 14.4426 21.4046 14.4754 21.2026C15.2125 20.6675 16.0371 20.2416 16.9271 19.9358C20.4654 18.7345 24.1785 19.772 26.7667 22.5841Z" fill="black"/>
<path d="M29.1694 25.5382C28.4486 26.4173 27.7224 27.291 27.0016 28.1646C26.9142 28.2684 26.8269 28.3721 26.7395 28.4704C25.9477 27.493 25.156 26.521 24.3588 25.5436C24.3697 25.5327 24.3751 25.5218 24.3861 25.5109C25.1942 24.5498 25.9805 23.5615 26.7723 22.5841C26.9415 22.7643 27.1053 22.9554 27.2637 23.152C27.8916 23.9492 28.5305 24.7464 29.1694 25.5382Z" fill="white"/>
<path d="M14.6557 26.9196C14.3499 27.7496 14.2516 28.6123 14.339 29.4478C12.9684 28.4431 11.8927 27.078 11.2429 25.4562C11.9036 23.7198 13.023 22.251 14.4755 21.1971C14.4427 21.4046 14.4263 21.6067 14.4209 21.8142C14.4209 23.1629 14.8359 24.386 15.5402 25.358C15.1635 25.8221 14.8632 26.3463 14.6557 26.9196Z" fill="black"/>
</svg>
