<svg width="203" height="32" viewBox="0 0 203 32" fill="none" xmlns="http://www.w3.org/2000/svg">
<path d="M35.86 28.0836V21.1036H40.26V21.8336H36.7V24.1836H39.96V24.9136H36.7V28.0836H35.86ZM44.2761 21.7836C44.0427 21.7836 43.8794 21.737 43.7861 21.6436C43.6927 21.5436 43.6461 21.4203 43.6461 21.2736V21.1136C43.6461 20.967 43.6927 20.847 43.7861 20.7536C43.8794 20.6536 44.0427 20.6036 44.2761 20.6036C44.5094 20.6036 44.6727 20.6536 44.7661 20.7536C44.8594 20.847 44.9061 20.967 44.9061 21.1136V21.2736C44.9061 21.4203 44.8594 21.5436 44.7661 21.6436C44.6727 21.737 44.5094 21.7836 44.2761 21.7836ZM42.0161 27.4036H43.8761V23.6036H42.0161V22.9236H44.6761V27.4036H46.4161V28.0836H42.0161V27.4036ZM50.2021 28.0836C49.8088 28.0836 49.5188 27.9736 49.3321 27.7536C49.1521 27.5336 49.0621 27.2503 49.0621 26.9036V23.6036H47.3421V22.9236H48.6221C48.7955 22.9236 48.9155 22.8903 48.9821 22.8236C49.0555 22.7503 49.0921 22.627 49.0921 22.4536V21.1036H49.8621V22.9236H52.2121V23.6036H49.8621V27.4036H52.2121V28.0836H50.2021ZM62.2643 21.7836C62.031 21.7836 61.8677 21.737 61.7743 21.6436C61.681 21.5436 61.6343 21.4203 61.6343 21.2736V21.1136C61.6343 20.967 61.681 20.847 61.7743 20.7536C61.8677 20.6536 62.031 20.6036 62.2643 20.6036C62.4977 20.6036 62.661 20.6536 62.7543 20.7536C62.8477 20.847 62.8943 20.967 62.8943 21.1136V21.2736C62.8943 21.4203 62.8477 21.5436 62.7543 21.6436C62.661 21.737 62.4977 21.7836 62.2643 21.7836ZM60.0043 27.4036H61.8643V23.6036H60.0043V22.9236H62.6643V27.4036H64.4043V28.0836H60.0043V27.4036ZM65.9204 28.0836V22.9236H66.7204V23.7636H66.7604C66.8138 23.637 66.8804 23.517 66.9604 23.4036C67.0404 23.2836 67.1371 23.1803 67.2504 23.0936C67.3704 23.007 67.5104 22.937 67.6704 22.8836C67.8304 22.8303 68.0171 22.8036 68.2304 22.8036C68.7704 22.8036 69.2038 22.977 69.5304 23.3236C69.8571 23.6636 70.0204 24.147 70.0204 24.7736V28.0836H69.2204V24.9136C69.2204 24.4403 69.1171 24.0903 68.9104 23.8636C68.7038 23.6303 68.4004 23.5136 68.0004 23.5136C67.8404 23.5136 67.6838 23.5336 67.5304 23.5736C67.3771 23.6136 67.2404 23.6736 67.1204 23.7536C67.0004 23.8336 66.9038 23.937 66.8304 24.0636C66.7571 24.1903 66.7204 24.337 66.7204 24.5036V28.0836H65.9204ZM81.6026 22.9236H82.4026L79.8426 29.2136C79.7826 29.3603 79.716 29.487 79.6426 29.5936C79.5693 29.707 79.4826 29.797 79.3826 29.8636C79.2826 29.937 79.1626 29.9903 79.0226 30.0236C78.8826 30.0636 78.716 30.0836 78.5226 30.0836H77.7626V29.4036H78.9626L79.5426 27.9836L77.4626 22.9236H78.2826L79.1526 25.0836L79.9226 27.0436H79.9626L80.7326 25.0836L81.6026 22.9236ZM85.9287 28.2036C85.5687 28.2036 85.242 28.1403 84.9487 28.0136C84.662 27.887 84.4154 27.707 84.2087 27.4736C84.0087 27.2336 83.8554 26.9503 83.7487 26.6236C83.642 26.2903 83.5887 25.917 83.5887 25.5036C83.5887 25.097 83.642 24.727 83.7487 24.3936C83.8554 24.0603 84.0087 23.777 84.2087 23.5436C84.4154 23.3036 84.662 23.1203 84.9487 22.9936C85.242 22.867 85.5687 22.8036 85.9287 22.8036C86.2887 22.8036 86.612 22.867 86.8987 22.9936C87.192 23.1203 87.4387 23.3036 87.6387 23.5436C87.8454 23.777 88.002 24.0603 88.1087 24.3936C88.2154 24.727 88.2687 25.097 88.2687 25.5036C88.2687 25.917 88.2154 26.2903 88.1087 26.6236C88.002 26.9503 87.8454 27.2336 87.6387 27.4736C87.4387 27.707 87.192 27.887 86.8987 28.0136C86.612 28.1403 86.2887 28.2036 85.9287 28.2036ZM85.9287 27.5136C86.3754 27.5136 86.7354 27.3803 87.0087 27.1136C87.282 26.847 87.4187 26.4336 87.4187 25.8736V25.1336C87.4187 24.5736 87.282 24.1603 87.0087 23.8936C86.7354 23.627 86.3754 23.4936 85.9287 23.4936C85.482 23.4936 85.122 23.627 84.8487 23.8936C84.5754 24.1603 84.4387 24.5736 84.4387 25.1336V25.8736C84.4387 26.4336 84.5754 26.847 84.8487 27.1136C85.122 27.3803 85.482 27.5136 85.9287 27.5136ZM93.1448 27.2436H93.1048C93.0515 27.3703 92.9848 27.4936 92.9048 27.6136C92.8248 27.727 92.7248 27.827 92.6048 27.9136C92.4915 28.0003 92.3548 28.0703 92.1948 28.1236C92.0348 28.177 91.8481 28.2036 91.6348 28.2036C91.0948 28.2036 90.6615 28.0336 90.3348 27.6936C90.0081 27.347 89.8448 26.8603 89.8448 26.2336V22.9236H90.6448V26.0936C90.6448 26.567 90.7481 26.9203 90.9548 27.1536C91.1615 27.3803 91.4648 27.4936 91.8648 27.4936C92.0248 27.4936 92.1815 27.4736 92.3348 27.4336C92.4881 27.3936 92.6248 27.3336 92.7448 27.2536C92.8648 27.1736 92.9615 27.0736 93.0348 26.9536C93.1081 26.827 93.1448 26.677 93.1448 26.5036V22.9236H93.9448V28.0836H93.1448V27.2436ZM95.6909 27.4036H97.2009V23.6036H95.6909V22.9236H98.0009V24.2236H98.0509C98.1576 23.817 98.3576 23.5003 98.6509 23.2736C98.9509 23.0403 99.3309 22.9236 99.7909 22.9236H100.511V23.7236H99.5409C99.0809 23.7236 98.7076 23.857 98.4209 24.1236C98.1409 24.3903 98.0009 24.7403 98.0009 25.1736V27.4036H100.001V28.0836H95.6909V27.4036ZM110.093 28.2036C109.72 28.2036 109.386 28.1403 109.093 28.0136C108.806 27.8803 108.563 27.697 108.363 27.4636C108.163 27.2303 108.01 26.947 107.903 26.6136C107.803 26.2803 107.753 25.9103 107.753 25.5036C107.753 25.097 107.806 24.727 107.913 24.3936C108.02 24.0603 108.173 23.777 108.373 23.5436C108.573 23.3036 108.816 23.1203 109.103 22.9936C109.39 22.867 109.716 22.8036 110.083 22.8036C110.583 22.8036 110.99 22.9136 111.303 23.1336C111.616 23.3536 111.846 23.6403 111.993 23.9936L111.353 24.3336C111.26 24.067 111.103 23.8603 110.883 23.7136C110.67 23.567 110.403 23.4936 110.083 23.4936C109.85 23.4936 109.64 23.5336 109.453 23.6136C109.273 23.687 109.12 23.7936 108.993 23.9336C108.866 24.0736 108.77 24.2403 108.703 24.4336C108.643 24.627 108.613 24.837 108.613 25.0636V25.9436C108.613 26.1703 108.643 26.3803 108.703 26.5736C108.77 26.767 108.866 26.9336 108.993 27.0736C109.12 27.2136 109.276 27.3236 109.463 27.4036C109.65 27.477 109.863 27.5136 110.103 27.5136C110.45 27.5136 110.736 27.4336 110.963 27.2736C111.19 27.1136 111.37 26.8936 111.503 26.6136L112.073 27.0036C111.92 27.3503 111.68 27.637 111.353 27.8636C111.033 28.0903 110.613 28.2036 110.093 28.2036ZM113.889 20.6836H114.689V23.7636H114.729C114.783 23.637 114.849 23.517 114.929 23.4036C115.009 23.2836 115.106 23.1803 115.219 23.0936C115.339 23.007 115.479 22.937 115.639 22.8836C115.799 22.8303 115.986 22.8036 116.199 22.8036C116.739 22.8036 117.173 22.977 117.499 23.3236C117.826 23.6636 117.989 24.147 117.989 24.7736V28.0836H117.189V24.9136C117.189 24.4403 117.086 24.0903 116.879 23.8636C116.673 23.6303 116.369 23.5136 115.969 23.5136C115.809 23.5136 115.653 23.5336 115.499 23.5736C115.346 23.6136 115.209 23.6736 115.089 23.7536C114.969 23.8336 114.873 23.937 114.799 24.0636C114.726 24.1903 114.689 24.337 114.689 24.5036V28.0836H113.889V20.6836ZM123.855 28.0836C123.542 28.0836 123.319 28.0036 123.185 27.8436C123.052 27.6836 122.969 27.4836 122.935 27.2436H122.885C122.772 27.5436 122.589 27.7803 122.335 27.9536C122.089 28.1203 121.755 28.2036 121.335 28.2036C120.795 28.2036 120.365 28.0636 120.045 27.7836C119.725 27.5036 119.565 27.1203 119.565 26.6336C119.565 26.1536 119.739 25.7836 120.085 25.5236C120.439 25.2636 121.005 25.1336 121.785 25.1336H122.885V24.6236C122.885 24.2436 122.779 23.9603 122.565 23.7736C122.352 23.5803 122.049 23.4836 121.655 23.4836C121.309 23.4836 121.025 23.5536 120.805 23.6936C120.585 23.827 120.409 24.0103 120.275 24.2436L119.735 23.8436C119.802 23.7103 119.892 23.5803 120.005 23.4536C120.119 23.327 120.259 23.217 120.425 23.1236C120.592 23.0236 120.782 22.947 120.995 22.8936C121.209 22.8336 121.445 22.8036 121.705 22.8036C122.312 22.8036 122.792 22.957 123.145 23.2636C123.505 23.5703 123.685 23.997 123.685 24.5436V27.3836H124.405V28.0836H123.855ZM121.475 27.5336C121.682 27.5336 121.869 27.5103 122.035 27.4636C122.209 27.4103 122.359 27.3436 122.485 27.2636C122.612 27.177 122.709 27.077 122.775 26.9636C122.849 26.8436 122.885 26.717 122.885 26.5836V25.7336H121.785C121.305 25.7336 120.955 25.8003 120.735 25.9336C120.515 26.067 120.405 26.2603 120.405 26.5136V26.7236C120.405 26.9903 120.499 27.1936 120.685 27.3336C120.879 27.467 121.142 27.5336 121.475 27.5336ZM128.221 21.7836C127.988 21.7836 127.825 21.737 127.731 21.6436C127.638 21.5436 127.591 21.4203 127.591 21.2736V21.1136C127.591 20.967 127.638 20.847 127.731 20.7536C127.825 20.6536 127.988 20.6036 128.221 20.6036C128.455 20.6036 128.618 20.6536 128.711 20.7536C128.805 20.847 128.851 20.967 128.851 21.1136V21.2736C128.851 21.4203 128.805 21.5436 128.711 21.6436C128.618 21.737 128.455 21.7836 128.221 21.7836ZM125.961 27.4036H127.821V23.6036H125.961V22.9236H128.621V27.4036H130.361V28.0836H125.961V27.4036ZM131.877 28.0836V22.9236H132.677V23.7636H132.717C132.771 23.637 132.837 23.517 132.917 23.4036C132.997 23.2836 133.094 23.1803 133.207 23.0936C133.327 23.007 133.467 22.937 133.627 22.8836C133.787 22.8303 133.974 22.8036 134.187 22.8036C134.727 22.8036 135.161 22.977 135.487 23.3236C135.814 23.6636 135.977 24.147 135.977 24.7736V28.0836H135.177V24.9136C135.177 24.4403 135.074 24.0903 134.867 23.8636C134.661 23.6303 134.357 23.5136 133.957 23.5136C133.797 23.5136 133.641 23.5336 133.487 23.5736C133.334 23.6136 133.197 23.6736 133.077 23.7536C132.957 23.8336 132.861 23.937 132.787 24.0636C132.714 24.1903 132.677 24.337 132.677 24.5036V28.0836H131.877ZM139.894 28.1736C139.62 28.1736 139.427 28.117 139.314 28.0036C139.207 27.8903 139.154 27.747 139.154 27.5736V27.3936C139.154 27.2203 139.207 27.077 139.314 26.9636C139.427 26.8503 139.62 26.7936 139.894 26.7936C140.167 26.7936 140.357 26.8503 140.464 26.9636C140.577 27.077 140.634 27.2203 140.634 27.3936V27.5736C140.634 27.747 140.577 27.8903 140.464 28.0036C140.357 28.117 140.167 28.1736 139.894 28.1736Z" fill="white"/>
<path d="M38.9664 8.72215L37.7957 10.3715V14.2394H34.96V1.0057H37.7936V6.54231H37.9455L39.3816 4.34313L41.7058 1.0057H44.8797L40.9311 6.59814L45.0681 14.2394H41.8749L38.9664 8.72215Z" fill="white"/>
<path d="M54.2131 14.2394C53.6331 14.2394 53.1666 14.0912 52.8156 13.7927C52.4624 13.4963 52.2548 13.069 52.1928 12.5127H52.0986C51.921 13.157 51.5721 13.6445 51.0499 13.9731C50.5277 14.3017 49.8878 14.4671 49.1323 14.4671C48.1885 14.4671 47.4287 14.2115 46.8551 13.6982C46.2816 13.1871 45.9948 12.4698 45.9948 11.5463C45.9948 10.5219 46.3672 9.76376 47.1098 9.27195C47.8525 8.77799 48.9418 8.53316 50.3779 8.53316H51.9466V8.03921C51.9466 7.4572 51.8118 7.01908 51.54 6.72056C51.2682 6.42419 50.8123 6.276 50.1703 6.276C49.5775 6.276 49.1002 6.38982 48.7342 6.61747C48.3683 6.84512 48.0536 7.1415 47.7904 7.50874L46.2602 6.14285C46.5876 5.58661 47.1013 5.12916 47.8011 4.76836C48.5009 4.40756 49.3977 4.22716 50.4935 4.22716C51.8289 4.22716 52.8712 4.53427 53.6203 5.14634C54.3693 5.76057 54.7439 6.6862 54.7439 7.92323V12.2078H55.8204V14.2373H54.2131V14.2394ZM50.1896 12.6287C50.6818 12.6287 51.097 12.5084 51.4373 12.2679C51.7776 12.0274 51.9466 11.6794 51.9466 11.2241V10.0494H50.4549C49.3078 10.0494 48.7364 10.436 48.7364 11.207V11.5871C48.7364 11.9286 48.8691 12.1884 49.1323 12.3645C49.3955 12.5406 49.7487 12.6287 50.1896 12.6287Z" fill="white"/>
<path d="M57.5775 14.2394V4.45695H60.3747V6.23949H60.4881C60.6016 5.96244 60.7407 5.70258 60.9033 5.46204C61.066 5.22151 61.265 5.01104 61.4983 4.82634C61.7316 4.6438 62.0013 4.49776 62.3116 4.39038C62.6198 4.28299 62.9686 4.2293 63.3603 4.2293C63.8268 4.2293 64.2549 4.30877 64.6444 4.46554C65.0339 4.62447 65.3678 4.86071 65.646 5.17641C65.9221 5.49211 66.1404 5.87869 66.2988 6.33398C66.455 6.78928 66.5342 7.31331 66.5342 7.9082V14.2394H63.737V8.28618C63.737 7.02123 63.1891 6.38982 62.0933 6.38982C61.8793 6.38982 61.6674 6.41774 61.4598 6.47573C61.2522 6.53371 61.066 6.62177 60.9033 6.74203C60.7386 6.8623 60.6101 7.01049 60.516 7.1866C60.4218 7.3627 60.3747 7.57317 60.3747 7.81156V14.2394H57.5775Z" fill="white"/>
<path d="M75.1121 12.4397H74.9794C74.7268 13.0389 74.378 13.5264 73.9307 13.9022C73.4834 14.2781 72.8691 14.4671 72.088 14.4671C71.5465 14.4671 71.0521 14.3661 70.6048 14.1643C70.1575 13.9624 69.7744 13.6531 69.4513 13.2343C69.1281 12.8155 68.8777 12.2872 68.6958 11.6408C68.5139 10.9965 68.4218 10.2319 68.4218 9.34712C68.4218 8.46229 68.5139 7.69773 68.6958 7.05344C68.8777 6.40915 69.1302 5.87869 69.4513 5.4599C69.7723 5.04111 70.1575 4.734 70.6048 4.52997C71.0521 4.32809 71.5465 4.22716 72.088 4.22716C72.4775 4.22716 72.8242 4.2787 73.1281 4.37964C73.432 4.48058 73.6974 4.62232 73.9307 4.80057C74.164 4.97883 74.3651 5.19144 74.5364 5.44057C74.7054 5.68969 74.8552 5.9603 74.9794 6.25452H75.1121V0.208931H77.9093V14.2394H75.1121V12.4397ZM73.2972 12.2679C73.7894 12.2679 74.2132 12.1498 74.5727 11.9092C74.9323 11.6709 75.1121 11.2929 75.1121 10.7796V7.91679C75.1121 7.40136 74.9323 7.02552 74.5727 6.78714C74.2132 6.54875 73.7894 6.42848 73.2972 6.42848C72.668 6.42848 72.1821 6.61962 71.8419 7.00405C71.5016 7.38633 71.3325 7.91679 71.3325 8.59544V10.1031C71.3325 10.7817 71.5016 11.3122 71.8419 11.6945C72.1821 12.0768 72.668 12.2679 73.2972 12.2679Z" fill="white"/>
<path d="M80.7985 12.0403H83.8975V6.65613H80.7985V4.45695H86.6926V12.0403H89.5648V14.2394H80.7985V12.0403ZM85.2951 3.20488C84.6659 3.20488 84.2271 3.07602 83.981 2.81616C83.7349 2.5563 83.6129 2.24489 83.6129 1.87764V1.32785C83.6129 0.947717 83.7349 0.632015 83.981 0.380742C84.2271 0.127321 84.6659 0.000610352 85.2951 0.000610352C85.9243 0.000610352 86.363 0.127321 86.6092 0.380742C86.8553 0.634163 86.9773 0.949865 86.9773 1.32785V1.87764C86.9773 2.24489 86.8553 2.5563 86.6092 2.81616C86.363 3.07602 85.9243 3.20488 85.2951 3.20488Z" fill="white"/>
<path d="M95.9147 14.4671C94.8318 14.4671 93.8901 14.3017 93.0897 13.9731C92.2892 13.6445 91.6878 13.1957 91.2855 12.6266L92.8542 11.1662C93.2331 11.5828 93.6761 11.9092 94.1854 12.1433C94.6948 12.3774 95.2791 12.4934 95.934 12.4934C96.4883 12.4934 96.9227 12.4075 97.2373 12.2378C97.552 12.0682 97.7103 11.804 97.7103 11.4518C97.7103 11.1748 97.6033 10.9815 97.3893 10.8741C97.1753 10.7667 96.8799 10.6808 96.5011 10.6185L94.9324 10.3715C94.4915 10.3093 94.0827 10.2105 93.7039 10.0773C93.3251 9.94416 92.9976 9.76376 92.7215 9.53611C92.4433 9.30846 92.2229 9.03141 92.0602 8.70283C91.8954 8.37424 91.8141 7.97692 91.8141 7.50874C91.8141 6.48432 92.2036 5.68325 92.9848 5.10124C93.766 4.51923 94.8617 4.2293 96.2721 4.2293C97.2288 4.2293 98.0442 4.35816 98.7184 4.61802C99.3925 4.87789 99.9297 5.24728 100.334 5.7262L98.9367 7.31975C98.6477 7.00405 98.2753 6.73774 97.8216 6.52298C97.3679 6.30821 96.82 6.20083 96.178 6.20083C95.095 6.20083 94.5536 6.52942 94.5536 7.1866C94.5536 7.47653 94.6606 7.67626 94.8746 7.78364C95.0886 7.89102 95.3839 7.97692 95.7628 8.03921L97.3123 8.28618C97.7531 8.34847 98.1619 8.44726 98.5407 8.58041C98.9195 8.71356 99.2491 8.89396 99.5338 9.12161C99.8163 9.34926 100.041 9.62631 100.204 9.9549C100.366 10.2835 100.45 10.6829 100.45 11.149C100.45 12.1734 100.056 12.9809 99.2684 13.5758C98.4808 14.1707 97.3615 14.4671 95.9147 14.4671Z" fill="white"/>
<path d="M114.468 14.2394V1.0057H119.57C120.212 1.0057 120.786 1.10449 121.289 1.29993C121.792 1.49536 122.218 1.7767 122.564 2.14395C122.911 2.51119 123.172 2.95361 123.348 3.47119C123.523 3.98877 123.613 4.57078 123.613 5.21507C123.613 5.85936 123.525 6.44137 123.348 6.95895C123.17 7.47653 122.909 7.91894 122.564 8.28619C122.218 8.65343 121.792 8.93477 121.289 9.1302C120.786 9.32564 120.212 9.42443 119.57 9.42443H117.321V14.2394H114.468ZM117.321 7.13076H118.851C119.519 7.13076 119.981 7.00405 120.24 6.75063C120.499 6.49721 120.627 6.08056 120.627 5.49856V4.92943C120.627 4.34742 120.499 3.93078 120.24 3.67736C119.981 3.42394 119.519 3.29723 118.851 3.29723H117.321V7.13076Z" fill="white"/>
<path d="M125.768 12.0402H128.018V6.65613H125.768V4.45695H130.813V7.22525H130.945C131.033 6.87089 131.157 6.52727 131.313 6.19224C131.472 5.85721 131.673 5.56084 131.919 5.30097C132.165 5.04111 132.463 4.83708 132.816 4.6846C133.169 4.53212 133.584 4.45695 134.064 4.45695H134.99V7.03626H132.912C132.219 7.03626 131.697 7.24029 131.343 7.65048C130.99 8.06068 130.815 8.56108 130.815 9.15168V12.0424H134.027V14.2394H125.768V12.0402Z" fill="white"/>
<path d="M141.374 14.4671C140.619 14.4671 139.938 14.3511 139.333 14.117C138.727 13.8829 138.216 13.5457 137.792 13.1033C137.37 12.6609 137.045 12.124 136.818 11.4926C136.591 10.8612 136.478 10.146 136.478 9.34926C136.478 8.55249 136.591 7.83948 136.818 7.20592C137.045 6.57452 137.368 6.03761 137.792 5.5952C138.213 5.15279 138.727 4.81561 139.333 4.58151C139.938 4.34742 140.617 4.23145 141.374 4.23145C142.13 4.23145 142.811 4.34742 143.414 4.58151C144.02 4.81561 144.531 5.15279 144.955 5.5952C145.377 6.03761 145.702 6.57452 145.929 7.20592C146.156 7.83733 146.269 8.55249 146.269 9.34926C146.269 10.146 146.156 10.859 145.929 11.4926C145.702 12.124 145.377 12.6609 144.955 13.1033C144.533 13.5457 144.02 13.8851 143.414 14.117C142.811 14.3511 142.13 14.4671 141.374 14.4671ZM141.374 12.3817C142.004 12.3817 142.496 12.1863 142.849 11.7933C143.202 11.4024 143.378 10.8462 143.378 10.1246V8.56967C143.378 7.85021 143.202 7.29398 142.849 6.90096C142.496 6.51009 142.006 6.31251 141.374 6.31251C140.745 6.31251 140.253 6.50794 139.9 6.90096C139.547 7.29398 139.371 7.84807 139.371 8.56967V10.1246C139.371 10.844 139.547 11.4024 139.9 11.7933C140.253 12.1863 140.745 12.3817 141.374 12.3817Z" fill="white"/>
<path d="M153.467 14.2394C152.459 14.2394 151.709 13.9753 151.217 13.4448C150.725 12.9143 150.481 12.24 150.481 11.4217V6.65613H147.836V4.45695H149.554C149.969 4.45695 150.265 4.37534 150.442 4.20997C150.618 4.04675 150.708 3.74179 150.708 3.29938V1.0057H153.278V4.45695H157.077V6.65613H153.278V12.0403H157.077V14.2394H153.467Z" fill="white"/>
<path d="M164.048 14.4671C163.292 14.4671 162.612 14.3511 162.006 14.117C161.4 13.8829 160.889 13.5457 160.465 13.1033C160.043 12.6609 159.718 12.124 159.491 11.4926C159.264 10.8612 159.151 10.146 159.151 9.34926C159.151 8.55249 159.264 7.83948 159.491 7.20592C159.718 6.57452 160.041 6.03761 160.465 5.5952C160.887 5.15279 161.4 4.81561 162.006 4.58151C162.612 4.34742 163.29 4.23145 164.048 4.23145C164.803 4.23145 165.484 4.34742 166.087 4.58151C166.693 4.81561 167.204 5.15279 167.628 5.5952C168.05 6.03761 168.375 6.57452 168.602 7.20592C168.829 7.83733 168.942 8.55249 168.942 9.34926C168.942 10.146 168.829 10.859 168.602 11.4926C168.375 12.124 168.05 12.6609 167.628 13.1033C167.207 13.5457 166.693 13.8851 166.087 14.117C165.484 14.3511 164.803 14.4671 164.048 14.4671ZM164.048 12.3817C164.677 12.3817 165.169 12.1863 165.522 11.7933C165.875 11.4024 166.051 10.8462 166.051 10.1246V8.56967C166.051 7.85021 165.875 7.29398 165.522 6.90096C165.169 6.51009 164.679 6.31251 164.048 6.31251C163.418 6.31251 162.926 6.50794 162.573 6.90096C162.22 7.29398 162.044 7.84807 162.044 8.56967V10.1246C162.044 10.844 162.22 11.4024 162.573 11.7933C162.926 12.1863 163.418 12.3817 164.048 12.3817Z" fill="white"/>
<path d="M175.782 14.4671C175.014 14.4671 174.325 14.3511 173.713 14.117C173.101 13.8829 172.585 13.5457 172.163 13.1033C171.742 12.6609 171.416 12.124 171.189 11.4926C170.963 10.8612 170.849 10.146 170.849 9.34926C170.849 8.55249 170.963 7.83948 171.189 7.20592C171.416 6.57452 171.74 6.03761 172.163 5.5952C172.585 5.15279 173.101 4.81561 173.713 4.58151C174.323 4.34742 175.008 4.23145 175.763 4.23145C176.833 4.23145 177.694 4.45051 178.342 4.88648C178.99 5.32245 179.485 5.90016 179.825 6.62177L177.672 7.79652C177.494 7.41639 177.265 7.10069 176.983 6.84942C176.7 6.596 176.294 6.46929 175.765 6.46929C175.123 6.46929 174.629 6.65613 174.282 7.02767C173.935 7.40136 173.762 7.9082 173.762 8.55464V10.1482C173.762 10.7925 173.935 11.3015 174.282 11.6752C174.629 12.0488 175.136 12.2335 175.804 12.2335C176.345 12.2335 176.771 12.1068 177.079 11.8534C177.387 11.6 177.649 11.2714 177.863 10.8676L179.979 12.0811C179.626 12.8005 179.112 13.3804 178.438 13.8163C177.762 14.2502 176.878 14.4671 175.782 14.4671Z" fill="white"/>
<path d="M186.721 14.4671C185.965 14.4671 185.285 14.3511 184.679 14.117C184.073 13.8829 183.562 13.5457 183.138 13.1033C182.717 12.6609 182.391 12.124 182.164 11.4926C181.938 10.8612 181.824 10.146 181.824 9.34926C181.824 8.55249 181.938 7.83948 182.164 7.20592C182.391 6.57452 182.714 6.03761 183.138 5.5952C183.56 5.15279 184.073 4.81561 184.679 4.58151C185.285 4.34742 185.963 4.23145 186.721 4.23145C187.476 4.23145 188.157 4.34742 188.76 4.58151C189.366 4.81561 189.878 5.15279 190.301 5.5952C190.723 6.03761 191.048 6.57452 191.275 7.20592C191.502 7.83733 191.615 8.55249 191.615 9.34926C191.615 10.146 191.502 10.859 191.275 11.4926C191.048 12.124 190.723 12.6609 190.301 13.1033C189.88 13.5457 189.366 13.8851 188.76 14.117C188.157 14.3511 187.478 14.4671 186.721 14.4671ZM186.721 12.3817C187.35 12.3817 187.842 12.1863 188.195 11.7933C188.549 11.4024 188.724 10.8462 188.724 10.1246V8.56967C188.724 7.85021 188.549 7.29398 188.195 6.90096C187.842 6.51009 187.352 6.31251 186.721 6.31251C186.092 6.31251 185.599 6.50794 185.246 6.90096C184.893 7.29398 184.718 7.84807 184.718 8.56967V10.1246C184.718 10.844 184.893 11.4024 185.246 11.7933C185.602 12.1863 186.092 12.3817 186.721 12.3817Z" fill="white"/>
<path d="M193.674 12.0402H196.66V2.40811H159.155V0.208931H198.385C198.978 0.208931 199.457 0.690001 199.457 1.2849V12.0402H202.443V14.2394H193.676V12.0402H193.674Z" fill="white"/>
<path d="M28.9837 30.7412H1.75758C0.786634 30.7412 0 29.9546 0 28.9837V1.75758C0 0.786634 0.786634 0 1.75758 0H28.9804C29.9546 0 30.7412 0.786634 30.7412 1.75758V28.9804C30.7412 29.9546 29.9546 30.7412 28.9837 30.7412Z" fill="#FAD64B"/>
<path d="M14.6776 15.3972C13.7165 16.5262 12.2255 16.9211 10.8761 16.4274C10.2639 16.2036 9.74385 15.8054 9.36535 15.2853C9.13824 15.5618 8.95722 15.8778 8.82886 16.2234C8.64454 16.7237 8.5853 17.2437 8.63796 17.7473C9.60562 18.4549 10.8168 18.8663 12.1597 18.8861C13.6375 18.8828 15.0396 18.3364 16.1093 17.1581C15.6354 16.5723 15.1581 15.9864 14.6776 15.3972ZM23.9855 3.74585C22.8171 0.928446 19.3744 0.148395 16.9355 2.11662C14.1608 4.35475 11.3928 6.60603 8.60834 8.83428C6.65656 10.3944 5.89626 12.7905 6.66644 15.0582C6.69935 15.157 6.73555 15.2524 6.77505 15.3479C7.1733 14.3012 7.84803 13.4158 8.72353 12.7806C8.83544 11.9973 9.23369 11.2468 9.94462 10.6676C12.7653 8.3702 15.5959 6.08271 18.4297 3.8018C19.4106 3.01187 20.6185 3.07112 21.4611 3.92029C22.2905 4.75629 22.3333 5.96751 21.5401 6.95492C19.8286 9.07126 18.1072 11.181 16.3891 13.2974C16.3035 13.4027 16.2179 13.508 16.1324 13.6166C16.2344 13.7252 16.3331 13.8404 16.4286 13.9589C16.8137 14.4395 17.1988 14.9167 17.5839 15.3972C19.5554 13.0011 21.5039 10.5886 23.426 8.15626C24.4661 6.83313 24.6339 5.30266 23.9855 3.74585Z" fill="white"/>
<path d="M23.1432 22.2869C21.2902 19.9896 19.4306 17.6955 17.5808 15.3981C17.1464 15.928 16.7086 16.4547 16.2742 16.9813C16.2215 17.0438 16.1688 17.1063 16.1162 17.1656C17.9034 19.3675 19.684 21.576 21.4613 23.7845C22.2513 24.7653 22.192 25.9732 21.3428 26.8158C20.5068 27.6453 19.2956 27.688 18.3082 26.8948C16.1886 25.1833 14.0788 23.4619 11.9625 21.7439C11.268 21.181 10.5637 20.6248 9.87906 20.0488C9.15826 19.4432 8.73038 18.6204 8.63822 17.7547C7.81209 17.1491 7.1637 16.3263 6.77202 15.3488C6.51859 16.0136 6.37706 16.7443 6.36719 17.5145C6.37048 19.0647 6.9728 20.5392 8.27946 21.6221C11.1923 24.0412 14.1348 26.4242 17.1036 28.7709C18.4234 29.8143 19.9539 29.9821 21.5107 29.337C24.3314 28.1653 25.1114 24.7258 23.1432 22.2869Z" fill="black"/>
<path d="M16.1332 13.6138C15.6559 14.2063 15.1852 14.7987 14.6948 15.378C14.6883 15.3846 14.685 15.3911 14.6784 15.3977C14.652 15.3648 14.6224 15.3286 14.5961 15.2957C13.9247 14.4729 13.0228 14.068 12.1078 14.0417C10.9789 14.045 9.99807 14.5222 9.36613 15.2891C8.93826 14.7065 8.69141 13.9693 8.69141 13.153C8.6947 13.028 8.70457 12.9029 8.72432 12.7811C9.16865 12.4585 9.66565 12.2018 10.2021 12.0175C12.3349 11.2934 14.5731 11.9188 16.1332 13.6138Z" fill="black"/>
<path d="M17.5813 15.3945C17.1469 15.9244 16.7091 16.451 16.2747 16.9777C16.222 17.0402 16.1693 17.1027 16.1167 17.162C15.6394 16.5728 15.1622 15.987 14.6816 15.3978C14.6882 15.3912 14.6915 15.3846 14.6981 15.3781C15.1852 14.7988 15.6592 14.203 16.1364 13.6139C16.2385 13.7225 16.3372 13.8377 16.4326 13.9562C16.8111 14.4367 17.1962 14.9173 17.5813 15.3945Z" fill="white"/>
<path d="M8.83346 16.2273C8.64915 16.7276 8.5899 17.2476 8.64257 17.7512C7.81644 17.1456 7.16804 16.3227 6.77637 15.3452C7.17462 14.2986 7.84935 13.4132 8.72485 12.778C8.7051 12.903 8.69523 13.0248 8.69194 13.1499C8.69194 13.9628 8.94208 14.7001 9.36666 15.286C9.13956 15.5657 8.95853 15.8817 8.83346 16.2273Z" fill="black"/>
</svg>
