<svg width="73" height="73" viewBox="0 0 73 73" fill="none" xmlns="http://www.w3.org/2000/svg">
<g filter="url(#filter0_d_569_332)">
<circle cx="36.5" cy="36.5" r="27.5" fill="#FAD64B"/>
</g>
<path d="M54 36.3947C54 40.7398 53.2714 44.2628 52.3 44.2628C51.3286 44.2628 50.6 40.7398 50.6 36.3947C50.6 32.0497 51.3286 28.5266 52.3 28.5266C53.2714 28.5266 54 32.0497 54 36.3947ZM49.75 36.3947C49.75 41.2095 47.5643 45.2023 45.0143 45.2023C42.4643 45.2023 40.2786 41.2095 40.2786 36.3947C40.2786 31.5799 42.4643 27.5872 45.0143 27.5872C47.5643 27.5872 49.75 31.5799 49.75 36.3947ZM39.1857 36.3947C39.1857 41.5618 34.9357 45.7895 29.5929 45.7895C24.25 45.7895 20 41.5618 20 36.3947C20 31.2276 24.25 27 29.5929 27C34.9357 27 39.1857 31.2276 39.1857 36.3947Z" fill="black"/>
<defs>
<filter id="filter0_d_569_332" x="0" y="0" width="73" height="73" filterUnits="userSpaceOnUse" color-interpolation-filters="sRGB">
<feFlood flood-opacity="0" result="BackgroundImageFix"/>
<feColorMatrix in="SourceAlpha" type="matrix" values="0 0 0 0 0 0 0 0 0 0 0 0 0 0 0 0 0 0 127 0" result="hardAlpha"/>
<feOffset/>
<feGaussianBlur stdDeviation="4.5"/>
<feComposite in2="hardAlpha" operator="out"/>
<feColorMatrix type="matrix" values="0 0 0 0 0.980392 0 0 0 0 0.839216 0 0 0 0 0.294118 0 0 0 0.5 0"/>
<feBlend mode="normal" in2="BackgroundImageFix" result="effect1_dropShadow_569_332"/>
<feBlend mode="normal" in="SourceGraphic" in2="effect1_dropShadow_569_332" result="shape"/>
</filter>
</defs>
</svg>
