<svg width="26" height="26" viewBox="0 0 26 26" fill="none" xmlns="http://www.w3.org/2000/svg">
<path d="M13 26C20.1797 26 26 20.1797 26 13C26 5.8203 20.1797 0 13 0C5.8203 0 0 5.8203 0 13C0 20.1797 5.8203 26 13 26Z" fill="#172852"/>
<path d="M10.4715 5.8097C11.9938 5.2403 13.7072 5.239 15.2581 5.707C17.277 6.3336 18.9813 7.8572 19.8718 9.7695C20.1175 10.3142 20.3528 10.8823 20.3762 11.4881C19.2413 10.8303 17.9972 10.4039 16.7505 10.0152C14.7563 9.2963 12.6685 8.7971 10.7809 7.8091C10.3415 7.5465 9.7812 7.2774 9.6616 6.7301C9.6135 6.2569 10.114 5.993 10.4715 5.8097Z" fill="#FFD83D"/>
<path d="M5.876 10.4117C6.3167 9.2157 7.0395 8.1055 8.021 7.2826C8.2706 9.3353 9.1442 11.3191 10.5872 12.8115C12.3175 14.6094 14.7823 15.7131 17.29 15.6715C18.2858 15.7027 19.2595 15.4726 20.2306 15.2867C19.2751 18.7395 15.4908 21.0314 11.9847 20.4802C9.8683 20.2098 7.9144 18.9566 6.7353 17.1873C5.4054 15.2321 5.07 12.636 5.876 10.4117Z" fill="#FFD83D"/>
<path d="M16.7505 10.0152C17.9972 10.4039 19.2413 10.8303 20.3762 11.4881L20.4529 11.5284C20.5582 12.3201 20.6349 13.1274 20.4945 13.9204C19.9238 13.6786 19.461 13.2535 18.9774 12.8778C18.0466 12.103 17.0963 11.2164 16.7505 10.0152Z" fill="#FF6F03"/>
</svg>
