<svg width="24" height="19" viewBox="0 0 24 19" fill="none" xmlns="http://www.w3.org/2000/svg">
<path d="M10.6667 4C10.6667 6.20913 8.8758 7.99999 6.66666 7.99999C4.45752 7.99999 2.66666 6.20913 2.66666 4C2.66666 1.79086 4.45752 0 6.66666 0C8.8758 0 10.6667 1.79086 10.6667 4Z" fill="#BFBFBF"/>
<path d="M21.3333 4C21.3333 6.20913 19.5425 7.99999 17.3333 7.99999C15.1242 7.99999 13.3333 6.20913 13.3333 4C13.3333 1.79086 15.1242 0 17.3333 0C19.5425 0 21.3333 1.79086 21.3333 4Z" fill="#BFBFBF"/>
<path d="M17.0587 18.6666C16.4501 18.6666 15.9864 18.1264 15.9982 17.5179C15.9994 17.4565 16 17.395 16 17.3333C16 15.1531 15.2524 13.1474 13.9997 11.5587C14.9803 10.9914 16.1189 10.6667 17.3333 10.6667C21.0152 10.6667 24 13.6514 24 17.3333V17.6666C24 18.2189 23.5523 18.6666 23 18.6666H17.0587Z" fill="#BFBFBF"/>
<path d="M6.66666 10.6667C10.3486 10.6667 13.3333 13.6514 13.3333 17.3333V17.6666C13.3333 18.2189 12.8856 18.6666 12.3333 18.6666H1C0.447716 18.6666 0 18.2189 0 17.6666V17.3333C0 13.6514 2.98477 10.6667 6.66666 10.6667Z" fill="#BFBFBF"/>
</svg>
