<svg width="73" height="73" viewBox="0 0 73 73" fill="none" xmlns="http://www.w3.org/2000/svg">
<g filter="url(#filter0_d_569_335)">
<circle cx="36.5" cy="36.5" r="27.5" fill="#FAD64B"/>
</g>
<path d="M48.1025 22.2502C48.1025 22.2502 51.2475 21.0237 50.9844 24.0019C50.8978 25.2283 50.1117 29.5212 49.4997 34.1637L47.4031 47.9174C47.4031 47.9174 47.2282 49.9322 45.6553 50.2827C44.0833 50.6325 41.7244 49.0563 41.2872 48.7058C40.9375 48.4427 34.735 44.5004 32.551 42.5738C31.939 42.0476 31.2396 40.9968 32.6384 39.7704L41.811 31.0099C42.8593 29.9591 43.9076 27.5063 39.5395 30.4845L27.3078 38.8063C27.3078 38.8063 25.9097 39.683 23.2893 38.8945L17.6098 37.1419C17.6098 37.1419 15.5132 35.8281 19.0953 34.5143C27.8323 30.3971 38.5786 26.1925 48.1009 22.2502H48.1025Z" fill="black"/>
<defs>
<filter id="filter0_d_569_335" x="0" y="0" width="73" height="73" filterUnits="userSpaceOnUse" color-interpolation-filters="sRGB">
<feFlood flood-opacity="0" result="BackgroundImageFix"/>
<feColorMatrix in="SourceAlpha" type="matrix" values="0 0 0 0 0 0 0 0 0 0 0 0 0 0 0 0 0 0 127 0" result="hardAlpha"/>
<feOffset/>
<feGaussianBlur stdDeviation="4.5"/>
<feComposite in2="hardAlpha" operator="out"/>
<feColorMatrix type="matrix" values="0 0 0 0 0.980392 0 0 0 0 0.839216 0 0 0 0 0.294118 0 0 0 0.5 0"/>
<feBlend mode="normal" in2="BackgroundImageFix" result="effect1_dropShadow_569_335"/>
<feBlend mode="normal" in="SourceGraphic" in2="effect1_dropShadow_569_335" result="shape"/>
</filter>
</defs>
</svg>
