<svg width="20" height="19" viewBox="0 0 20 19" fill="none" xmlns="http://www.w3.org/2000/svg">
<path d="M18 2C18.5523 2 19 1.55228 19 1C19 0.447715 18.5523 0 18 0V2ZM3.50001 2L18 2V0L3.50001 0L3.50001 2ZM3.50001 7L11.5 7V5L3.50001 5V7ZM2.00001 3.5C2.00001 2.67157 2.67158 2 3.50001 2L3.50001 0C1.56701 0 7.62939e-06 1.567 7.62939e-06 3.5L2.00001 3.5ZM7.62939e-06 3.5C7.62939e-06 5.433 1.56701 7 3.50001 7V5C2.67158 5 2.00001 4.32843 2.00001 3.5L7.62939e-06 3.5Z" fill="#FAD64B"/>
<path d="M1 9L1 3.5" stroke="#FAD64B" stroke-width="2"/>
<path d="M1 5.5H0.5V6L0.5 16V16.0329C0.499975 16.4762 0.499952 16.8581 0.541071 17.1639C0.585136 17.4917 0.684507 17.8058 0.939339 18.0607L0.939341 18.0607C1.19417 18.3155 1.50835 18.4149 1.83611 18.4589C2.14193 18.5 2.52384 18.5 2.96708 18.5L3 18.5L17 18.5C17.011 18.5 17.022 18.5 17.0329 18.5C17.4762 18.5 17.8581 18.5 18.1639 18.4589C18.4917 18.4149 18.8058 18.3155 19.0607 18.0607C19.3155 17.8058 19.4149 17.4917 19.4589 17.1639C19.5 16.8581 19.5 16.4762 19.5 16.0329C19.5 16.022 19.5 16.011 19.5 16V15V14.5H19H16C14.6193 14.5 13.5 13.3807 13.5 12C13.5 10.6193 14.6193 9.5 16 9.5H19H19.5V9V8L19.5 7.96708C19.5 7.52384 19.5 7.14193 19.4589 6.8361C19.4149 6.50835 19.3155 6.19417 19.0607 5.93934C18.8058 5.68451 18.4917 5.58514 18.1639 5.54107C17.8581 5.49995 17.4762 5.49997 17.0329 5.5L17 5.5L1 5.5Z" fill="#FAD64B" stroke="#FAD64B"/>
</svg>
